<svg width="119" height="119" viewBox="0 0 119 119" fill="none" xmlns="http://www.w3.org/2000/svg">
<g opacity="0.1" clip-path="url(#clip0_334_1702)">
<path d="M91.6258 91.6384L96.5408 86.7233C100.647 82.6176 107.303 82.6176 111.409 86.7233L116.488 91.803L111.573 96.7181C107.468 100.824 100.811 100.824 96.7055 96.7181L91.6258 91.6384Z" fill="white"/>
<path d="M107.841 90.2904L112.921 95.3701L116.488 91.803L111.409 86.7233C107.303 82.6176 100.646 82.6176 96.5408 86.7233L92.974 90.2902C97.0794 86.185 103.736 86.185 107.841 90.2904Z" fill="white"/>
<path d="M99.4645 19.2358V12.2849C99.4645 6.47871 104.171 1.7718 109.978 1.7718H117.162V8.72272C117.162 14.5289 112.455 19.2358 106.648 19.2358H99.4645Z" fill="white"/>
<path d="M104.68 7.06938H111.864V14.0203C111.865 15.5015 111.552 16.9661 110.945 18.3174C114.609 16.6741 117.162 12.9978 117.162 8.72287V1.77195H109.978C105.703 1.77195 102.027 4.32473 100.383 7.98799C101.735 7.3814 103.199 7.06831 104.68 7.06938Z" fill="white"/>
<path d="M1.63027 117.02V110.069C1.63027 104.262 6.33717 99.5555 12.1434 99.5555H19.3274V106.506C19.3274 112.313 14.6205 117.02 8.81427 117.02H1.63027Z" fill="white"/>
<path d="M6.91163 104.788H14.0956V111.739C14.0956 113.287 13.758 114.757 13.1565 116.081C16.7953 114.427 19.3274 110.764 19.3274 106.507V99.5556H12.1434C7.88612 99.5556 4.22263 102.088 2.56936 105.726C3.933 105.107 5.41372 104.786 6.91163 104.788Z" fill="white"/>
<path d="M91.7744 116.539L86.8593 111.624C82.7536 107.518 82.7536 100.862 86.8593 96.7563L91.939 91.6765L96.8541 96.5914C100.96 100.697 100.96 107.353 96.8541 111.459L91.7744 116.539Z" fill="white"/>
<path d="M92.8411 100.604C96.9468 104.709 96.9468 111.366 92.8411 115.472L96.8541 111.458C100.96 107.353 100.96 100.696 96.8541 96.5907L91.939 91.6756L86.8593 96.7553L87.926 95.6884L92.8411 100.604Z" fill="white"/>
<path d="M109.778 106.75H106.775V109.752C106.775 113.881 110.123 117.228 114.251 117.228H117.254V114.226C117.254 110.097 113.907 106.75 109.778 106.75Z" fill="white"/>
<path d="M108.521 111.263C110.851 111.263 112.74 113.152 112.74 115.482V117.075C113.238 117.177 113.744 117.228 114.251 117.228H117.254V114.226C117.254 110.097 113.907 106.75 109.778 106.75H106.775V109.752C106.775 110.27 106.828 110.775 106.928 111.263H108.521Z" fill="white"/>
<path d="M78.5884 92.0797V89.0772H75.586C71.457 89.0772 68.11 92.4245 68.11 96.5532V99.5557H71.1124C75.2413 99.5557 78.5884 96.2084 78.5884 92.0797ZM29.1987 89.0772H26.1963V92.0797C26.1963 96.2086 29.5435 99.5557 33.6723 99.5557H36.6747V96.5532C36.6747 92.4243 33.3276 89.0772 29.1987 89.0772Z" fill="white"/>
<path d="M27.9419 93.5909C30.272 93.5909 32.1612 95.4798 32.1612 97.8102V99.4027C32.6584 99.5046 33.1648 99.5558 33.6724 99.5557H36.6748V96.5532C36.6748 92.4243 33.3275 89.0772 29.1988 89.0772H26.1964V92.0797C26.1964 92.5975 26.2492 93.1028 26.3494 93.5909H27.9419Z" fill="white"/>
<path d="M92.105 78.6138H89.1026V75.6114C89.1026 71.4824 92.4499 68.1353 96.5786 68.1353H99.5811V71.1378C99.5811 75.2665 96.234 78.6138 92.105 78.6138Z" fill="white"/>
<path d="M91.444 73.2701H94.4464V76.2725C94.4464 76.985 94.3446 77.6733 94.1584 78.3258C97.2884 77.4332 99.5811 74.5542 99.5811 71.1376V68.1352H96.5786C93.1622 68.1352 90.2832 70.4278 89.3904 73.5579C90.0583 73.367 90.7494 73.2702 91.444 73.2701ZM70.3325 94.3815H73.3349V97.3837C73.3349 98.0962 73.2332 98.7846 73.0469 99.437C76.1769 98.5445 78.4696 95.6655 78.4696 92.2488V89.2464H75.4672C72.0507 89.2464 69.1717 91.5391 68.279 94.6691C68.9468 94.4785 69.638 94.3817 70.3325 94.3815Z" fill="white"/>
<path d="M89.1026 29.224V26.2215H92.105C96.234 26.2215 99.5811 29.5688 99.5811 33.6975V36.7002H96.5786C92.4499 36.7002 89.1026 33.3529 89.1026 29.224Z" fill="white"/>
<path d="M90.8481 30.7354C93.1783 30.7354 95.0674 32.6243 95.0674 34.9547V36.5472C95.5647 36.6491 96.071 36.7004 96.5786 36.7002H99.5811V33.6978C99.5811 29.5688 96.2338 26.2218 92.105 26.2218H89.1026V29.2242C89.1026 29.7421 89.1555 30.2473 89.2556 30.7354H90.8481Z" fill="white"/>
<path d="M91.626 91.6381L96.5411 86.723C100.647 82.6173 107.303 82.6173 111.409 86.723L116.489 91.8027L111.573 96.7178C107.468 100.823 100.811 100.823 96.7057 96.7178M91.626 91.6381L96.7057 96.7178M91.626 91.6381H104.829M91.626 91.6381L86.7109 96.5532C82.6052 100.659 82.6052 107.315 86.7109 111.421L91.7906 116.501L96.7057 111.586C100.811 107.48 100.811 100.823 96.7057 96.7178M91.626 91.6381V104.841M1.74672 111.78V117.136H8.69763C14.5038 117.136 19.2108 112.429 19.2108 106.623V99.4389M19.2108 99.4389H12.2598C7.02015 99.4389 2.67557 103.272 1.87781 108.287M19.2108 99.4389L9.87471 108.775M34.9284 117.228H33.182C30.2886 117.228 27.9428 114.882 27.9428 111.989C27.9428 109.095 30.2886 106.75 33.182 106.75H71.6029C74.4963 106.75 76.8421 109.095 76.8421 111.989C76.8421 114.882 74.4963 117.228 71.6029 117.228H69.8565M52.3924 99.5556H41.914M62.8709 99.5556H55.8853M99.465 19.2359V12.285C99.465 6.47874 104.172 1.77183 109.978 1.77183H117.162V8.72276C117.162 14.529 112.455 19.2359 106.649 19.2359H99.465ZM99.465 19.2359L108.801 9.8996M106.775 52.4027V71.628C106.775 74.5214 109.121 76.8672 112.015 76.8672C114.908 76.8672 117.254 74.5214 117.254 71.628V69.8816M106.775 45.417V48.9098M117.254 34.9535V33.2071C117.254 30.3137 114.908 27.9679 112.015 27.9679C109.121 27.9679 106.775 30.3137 106.775 33.2071V41.9242M99.5815 62.896V41.9391M109.778 106.75H106.775V109.752C106.775 113.881 110.123 117.228 114.251 117.228H117.254V114.225C117.254 110.097 113.907 106.75 109.778 106.75ZM78.5885 92.0796V89.0772H75.5861C71.4571 89.0772 68.1101 92.4244 68.1101 96.5532V99.5556H71.1125C75.2415 99.5556 78.5885 96.2083 78.5885 92.0796ZM29.1988 89.0772H26.1964V92.0796C26.1964 96.2085 29.5437 99.5556 33.6724 99.5556H36.6748V96.5532C36.6748 92.4242 33.3278 89.0772 29.1988 89.0772ZM92.1054 78.6136H89.103V75.6112C89.103 71.4822 92.4503 68.1352 96.579 68.1352H99.5815V71.1376C99.5815 75.2663 96.2344 78.6136 92.1054 78.6136ZM89.103 29.2237V26.2213H92.1054C96.2344 26.2213 99.5815 29.5685 99.5815 33.6973V36.6999H96.579C92.4503 36.6999 89.103 33.3526 89.103 29.2237Z" stroke="white" stroke-width="3.79685" stroke-miterlimit="10"/>
</g>
<defs>
<clipPath id="clip0_334_1702">
<rect width="119" height="119" fill="white" transform="matrix(-1 0 0 -1 119 119)"/>
</clipPath>
</defs>
</svg>
