<svg width="32" height="32" viewBox="0 0 32 32" fill="none" xmlns="http://www.w3.org/2000/svg">
<path d="M4.70247 10H27.297C27.4332 10 27.5679 9.97223 27.693 9.91833C27.818 9.86442 27.9307 9.78555 28.0242 9.68653C28.1177 9.58752 28.19 9.47045 28.2366 9.34251C28.2833 9.21457 28.3033 9.07845 28.2955 8.9425L28.283 8.683C28.1205 6.057 25.9255 4 23.285 4H22V3C22 2.73478 21.8946 2.48043 21.7071 2.29289C21.5195 2.10536 21.2652 2 21 2C20.7348 2 20.4804 2.10536 20.2929 2.29289C20.1053 2.48043 20 2.73478 20 3V4H12V3C12 2.73478 11.8946 2.48043 11.7071 2.29289C11.5195 2.10536 11.2652 2 11 2C10.7348 2 10.4804 2.10536 10.2929 2.29289C10.1053 2.48043 9.99997 2.73478 9.99997 3V4H8.71497C6.07447 4 3.87897 6.0575 3.71647 8.685L3.70397 8.943C3.69599 9.07896 3.71591 9.21512 3.76251 9.3431C3.8091 9.47108 3.88138 9.58817 3.97491 9.68718C4.06844 9.78618 4.18123 9.86501 4.30635 9.91881C4.43147 9.9726 4.56628 10.0002 4.70247 10ZM28.452 12.975C28.4456 12.7142 28.3375 12.4662 28.1507 12.284C27.9639 12.1019 27.7134 11.9999 27.4525 12H4.54747C4.28657 12 4.03601 12.102 3.8492 12.2841C3.66239 12.4663 3.55412 12.7142 3.54747 12.975C3.45714 16.5134 3.5202 20.0541 3.73647 23.587C3.89247 26.097 5.90297 28.107 8.41197 28.263C13.4654 28.5796 18.5336 28.5795 23.587 28.2625C26.097 28.1065 28.107 26.096 28.2635 23.5865C28.4785 20.1275 28.542 16.557 28.452 12.975ZM21 18C20.6021 18 20.2206 17.842 19.9393 17.5607C19.658 17.2794 19.5 16.8978 19.5 16.5C19.5 16.1022 19.658 15.7206 19.9393 15.4393C20.2206 15.158 20.6021 15 21 15C21.3978 15 21.7793 15.158 22.0606 15.4393C22.3419 15.7206 22.5 16.1022 22.5 16.5C22.5 16.8978 22.3419 17.2794 22.0606 17.5607C21.7793 17.842 21.3978 18 21 18ZM22.5 21.5C22.5 21.8978 22.3419 22.2794 22.0606 22.5607C21.7793 22.842 21.3978 23 21 23C20.6021 23 20.2206 22.842 19.9393 22.5607C19.658 22.2794 19.5 21.8978 19.5 21.5C19.5 21.1022 19.658 20.7206 19.9393 20.4393C20.2206 20.158 20.6021 20 21 20C21.3978 20 21.7793 20.158 22.0606 20.4393C22.3419 20.7206 22.5 21.1022 22.5 21.5ZM11 20C11.3978 20 11.7793 20.158 12.0606 20.4393C12.3419 20.7206 12.5 21.1022 12.5 21.5C12.5 21.8978 12.3419 22.2794 12.0606 22.5607C11.7793 22.842 11.3978 23 11 23C10.6021 23 10.2206 22.842 9.93931 22.5607C9.65801 22.2794 9.49997 21.8978 9.49997 21.5C9.49997 21.1022 9.65801 20.7206 9.93931 20.4393C10.2206 20.158 10.6021 20 11 20ZM9.49997 16.5C9.49997 16.303 9.53877 16.108 9.61415 15.926C9.68954 15.744 9.80002 15.5786 9.93931 15.4393C10.0786 15.3001 10.244 15.1896 10.4259 15.1142C10.6079 15.0388 10.803 15 11 15C11.197 15 11.392 15.0388 11.574 15.1142C11.756 15.1896 11.9213 15.3001 12.0606 15.4393C12.1999 15.5786 12.3104 15.744 12.3858 15.926C12.4612 16.108 12.5 16.303 12.5 16.5C12.5 16.8978 12.3419 17.2794 12.0606 17.5607C11.7793 17.842 11.3978 18 11 18C10.6021 18 10.2206 17.842 9.93931 17.5607C9.65801 17.2794 9.49997 16.8978 9.49997 16.5ZM14.5 21.5C14.5 21.1022 14.658 20.7206 14.9393 20.4393C15.2206 20.158 15.6021 20 16 20C16.3978 20 16.7793 20.158 17.0606 20.4393C17.3419 20.7206 17.5 21.1022 17.5 21.5C17.5 21.8978 17.3419 22.2794 17.0606 22.5607C16.7793 22.842 16.3978 23 16 23C15.6021 23 15.2206 22.842 14.9393 22.5607C14.658 22.2794 14.5 21.8978 14.5 21.5ZM16 18C15.6021 18 15.2206 17.842 14.9393 17.5607C14.658 17.2794 14.5 16.8978 14.5 16.5C14.5 16.1022 14.658 15.7206 14.9393 15.4393C15.2206 15.158 15.6021 15 16 15C16.3978 15 16.7793 15.158 17.0606 15.4393C17.3419 15.7206 17.5 16.1022 17.5 16.5C17.5 16.8978 17.3419 17.2794 17.0606 17.5607C16.7793 17.842 16.3978 18 16 18Z" fill="white"/>
</svg>
