<svg width="130" height="77" viewBox="0 0 130 77" fill="none" xmlns="http://www.w3.org/2000/svg">
<mask id="mask0_334_2245" style="mask-type:luminance" maskUnits="userSpaceOnUse" x="0" y="0" width="130" height="77">
<path d="M129.151 0H0V76.3689H129.151V0Z" fill="white"/>
</mask>
<g mask="url(#mask0_334_2245)">
<path d="M101.458 41.6752L99.0654 44.3473L94.8691 39.7455L97.7095 38.6516L101.458 41.6752Z" fill="#FFA46E"/>
<path d="M98.4697 42.4056L98.3239 42.4825L96.8745 43.2469C96.4838 43.4584 95.9977 43.3097 95.7884 42.9152C94.5508 39.7653 93.085 36.868 91.2591 34.3679C91.0503 33.9734 91.1969 33.482 91.5876 33.2705L93.1022 32.4712L93.1829 32.4288C93.5732 32.2173 94.0592 32.3659 94.2684 32.7609C96.0691 35.3651 97.5605 38.2296 98.7978 41.3078C99.0071 41.7027 98.86 42.1941 98.4697 42.4056Z" fill="#545454"/>
<path d="M94.4178 34.925L92.5707 35.9029C92.2164 36.0948 91.7752 35.96 91.5854 35.6017L90.9526 34.4076C90.7628 34.0493 90.8962 33.6034 91.2505 33.4116L93.0976 32.4336C93.452 32.2418 93.8931 32.3766 94.0829 32.7348L94.7157 33.929C94.9055 34.2872 94.7722 34.7331 94.4178 34.925Z" fill="#333333"/>
<path d="M94.011 34.9303L92.5621 35.6925C92.2566 35.8579 91.8764 35.7417 91.7127 35.4329L91.1428 34.3575C90.9792 34.0488 91.0942 33.6644 91.3996 33.4989L92.8485 32.7367C93.154 32.5713 93.5342 32.6875 93.6979 32.9963L94.2678 34.0717C94.4314 34.3805 94.3164 34.7648 94.011 34.9303Z" fill="#6E6E6E"/>
<path d="M98.3895 42.4178L96.5424 43.3957C96.188 43.5875 95.7469 43.4527 95.5571 43.0945L94.9243 41.9003C94.7345 41.5421 94.8678 41.0962 95.2222 40.9043L97.0693 39.9264C97.4236 39.7346 97.8648 39.8694 98.0546 40.2276L98.6874 41.4218C98.8772 41.78 98.7438 42.2259 98.3895 42.4178Z" fill="#333333"/>
<path d="M97.9973 42.4516L96.5484 43.2139C96.243 43.3793 95.8627 43.2631 95.6991 42.9543L95.1292 41.8789C94.9655 41.5701 95.0805 41.1857 95.386 41.0203L96.8348 40.258C97.1403 40.0926 97.5206 40.2089 97.6842 40.5176L98.2541 41.593C98.4177 41.9018 98.3027 42.2862 97.9973 42.4516Z" fill="#6E6E6E"/>
<path d="M94.9389 40.9463C94.7943 40.9139 93.4769 40.1343 94.6336 38.088C95.4691 38.023 95.5593 39.1062 95.4048 39.3873C94.9228 40.2643 94.9389 40.9463 94.9389 40.9463Z" fill="#FFA46E"/>
<path d="M98.4769 42.407L98.3311 42.4838C98.3627 42.4053 98.4492 42.1895 98.5349 41.9394C98.6437 41.6238 97.259 39.469 97.259 39.469C97.259 39.469 95.7789 39.263 95.0865 37.8904C94.3941 36.5183 94.9369 35.2004 94.9369 35.2004C94.9369 35.2004 94.2177 33.9242 93.8917 33.1967C93.7081 32.7873 93.3699 32.5779 93.1094 32.4726L93.19 32.4301C93.5803 32.2186 94.0664 32.3673 94.2756 32.7622C96.0763 35.3664 97.5677 38.2309 98.805 41.3091C99.0143 41.7041 98.8673 42.1955 98.4769 42.407Z" fill="#333333"/>
<path d="M96.5611 39.1281C96.951 39.3357 97.3686 39.0474 97.7178 39.1281C97.8976 39.1696 97.9311 39.445 98.0873 39.5503C98.8746 38.4297 97.3575 35.5791 96.0452 34.9639C95.9598 34.9239 95.0572 35.0115 95.1043 36.4144C95.1338 37.2937 96.1712 38.9204 96.5611 39.1281Z" fill="#FFA46E"/>
<path d="M112.337 50.6891C112.336 50.69 112.336 50.6913 112.336 50.6922C112.298 50.9035 112.237 51.1118 112.149 51.314C111.739 52.2611 110.757 53.07 108.934 53.3788C106.107 53.5953 101.97 53.772 98.2891 54.038C97.2312 54.1145 96.2107 54.1984 95.2701 54.2927C91.3761 53.2771 89.0391 47.2619 93.6034 45.9861C94.1198 45.8417 96.259 45.8002 98.8805 45.8696C103.647 45.9953 110.008 46.4874 111.105 47.3934C111.97 48.1073 112.559 49.4458 112.337 50.6891Z" fill="#148F97"/>
<path d="M92.2599 46.4803C89.9287 48.3805 86.6312 48.8814 84.1812 46.641C84.205 45.3984 84.5455 41.6946 84.4624 40.4862L92.062 41.5223C92.1201 42.9793 92.2014 45.0175 92.2599 46.4803Z" fill="#FFA46E"/>
<path d="M92.0832 41.8516C92.0789 41.7404 92.0749 41.6262 92.0708 41.5208H86.4587L84.7622 41.8819C84.7622 41.8819 87.1679 45.8968 92.2486 46.4874C92.1883 44.7937 92.1144 42.7126 92.0832 41.8516Z" fill="#D46C42"/>
<path d="M93.1869 36.6585C93.7029 36.6326 94.0948 36.0756 94.0622 35.4144C94.0297 34.7533 93.585 34.2383 93.069 34.2643C92.5531 34.2902 92.1611 34.8473 92.1937 35.5084C92.2262 36.1696 92.6709 36.6845 93.1869 36.6585Z" fill="#FFA46E"/>
<path d="M92.4492 31.8207C92.4115 31.9508 94.0483 37.9014 93.8458 39.3874C92.1379 43.8402 89.25 45.4289 84.5553 42.039C83.8637 41.2261 81.7212 36.7023 81.6837 36.6595C78.5654 30.5506 90.1157 25.4118 92.4492 31.8207Z" fill="#FFA46E"/>
<path d="M91.3491 30.4422C92.3555 30.6802 92.7071 33.4209 92.9987 34.2569L93.0539 34.0983C93.3075 22.6838 74.5318 28.3784 82.1964 37.6856C82.7518 38.0286 83.3491 39.1569 83.6844 39.9728C83.5946 39.4178 84.2408 37.7231 84.0141 36.4679C84.0141 36.4679 82.6815 34.7663 83.0907 33.132C83.3414 32.1304 85.4637 32.4357 87.2703 31.7709C89.1085 31.0945 90.6257 30.1666 91.3491 30.4422Z" fill="black"/>
<path d="M86.9794 36.4242C87.2059 37.0567 86.5595 37.2964 86.3277 36.6659C86.1012 36.0335 86.7475 35.7938 86.9794 36.4242Z" fill="black"/>
<path d="M92.0546 34.5655C92.2811 35.198 91.6347 35.4377 91.4029 34.8072C91.1764 34.1747 91.8227 33.935 92.0546 34.5655Z" fill="black"/>
<path d="M90.6233 38.85C91.8899 38.4418 90.0812 36.9666 89.708 36.5853L89.4024 35.7434C89.3821 35.6875 89.3207 35.6587 89.2654 35.6792C89.21 35.6998 89.1816 35.7618 89.2019 35.8178L89.5262 36.7111C90.1035 37.2196 90.9204 38.0966 90.8645 38.3882C90.7302 38.87 89.5223 38.6625 89.5679 38.8884C89.559 39.1029 90.2335 38.9668 90.6233 38.85Z" fill="#C75038"/>
<path d="M90.6082 40.8483C90.9428 40.7242 91.1659 40.6238 91.1983 40.609C91.3245 40.5535 91.2369 40.3527 91.1107 40.4121C91.0811 40.4256 88.1503 41.743 87.0025 40.8774C86.9552 40.8418 86.8883 40.8517 86.853 40.8994C87.321 41.8906 89.8095 41.1505 90.6082 40.8483Z" fill="#C75038"/>
<path d="M85.4388 35.967C84.4891 35.9292 86.0933 34.4705 87.0343 34.8318C87.1499 34.8553 87.2247 34.9693 87.2012 35.0862C87.1778 35.203 87.0651 35.2786 86.9494 35.2549C85.855 35.0878 85.6651 35.8623 85.4388 35.967Z" fill="black"/>
<path d="M90.4171 34.0595C89.5885 34.0932 90.7286 32.684 92.0366 32.9909C92.1523 33.0146 92.227 33.1285 92.2035 33.2454C92.1801 33.3623 92.0673 33.4378 91.9518 33.4141C90.8601 33.2417 90.6316 33.9606 90.4171 34.0595Z" fill="black"/>
<path d="M80.6137 31.6957C80.6137 31.6957 82.7946 26.9028 87.1901 25.7094C91.5856 24.5159 90.6544 27.3372 90.6544 27.3372C95.2746 26.6058 88.2574 31.707 86.4061 32.0855C84.7347 32.5498 80.5107 33.0963 80.6137 31.6957Z" fill="black"/>
<path d="M83.9355 40.1553C84.5313 39.694 84.5453 38.7011 83.9668 37.9377C83.3883 37.1743 82.4363 36.9294 81.8405 37.3908C81.2447 37.8522 81.2307 38.8451 81.8092 39.6085C82.3878 40.3719 83.3397 40.6167 83.9355 40.1553Z" fill="#FFA46E"/>
<path d="M83.3849 39.6364C83.3291 39.6571 83.2653 39.6333 83.2369 39.5786C82.8007 38.7399 82.4719 38.5858 82.3147 38.5686C82.1525 38.5508 82.0592 38.6603 82.0553 38.665C82.0127 38.716 81.9371 38.7236 81.8861 38.6812C81.8351 38.6389 81.8268 38.5636 81.8681 38.5115C81.875 38.5027 82.0415 38.2972 82.3335 38.3256C82.6997 38.3611 83.0754 38.7445 83.4502 39.4652C83.4812 39.5248 83.4585 39.5984 83.3996 39.6297C83.3948 39.6323 83.3899 39.6346 83.3849 39.6364Z" fill="#C75038"/>
<path d="M77.0114 78.7651C76.9116 79.9454 76.8095 81.1789 76.7107 82.4107H95.5078L95.6432 46.632C94.6814 46.4263 93.3901 45.9222 92.0844 45.8131C91.2646 46.7022 90.7717 47.3232 89.3764 47.3548C88.5135 47.3737 87.2382 46.9239 86.4017 45.7407C79.7054 46.4074 76.2285 48.7778 76.2285 48.7778L79.3164 70.4569C79.3164 70.4569 77.3869 74.323 77.0114 78.7651Z" fill="#9EDDFF"/>
<path d="M90.2059 50.3967L91.4227 48.809L89.4569 47.3983L87.3516 48.7553L88.5954 50.3967H90.2059Z" fill="#3086B3"/>
<path d="M93.5698 73.4729L91.1283 77.5341L88.7876 73.6014C89.3462 66.3536 89.0903 56.9981 88.6123 49.3745L90.2767 49.3857C91.8518 57.1401 93.1644 66.3211 93.5698 73.4729Z" fill="#3086B3"/>
<path d="M93.0992 45.9372L92.2305 45.0236C92.1567 45.9516 90.4559 47.1539 89.4541 47.3989C90.3547 48.1744 91.0504 48.7618 91.9559 50.1743L93.0992 45.9372Z" fill="#5BB9EB"/>
<path d="M83.1104 46.0802L84.4172 44.4136C84.4172 44.4136 87.0377 46.3934 89.4545 47.3989C88.3722 48.223 87.878 49.0713 87.229 50.1743L83.1104 46.0802Z" fill="#5BB9EB"/>
<path d="M75.4463 82.4091H86.0189C87.4346 69.8596 86.0274 57.7399 82.9571 46.1602C77.1352 47.0391 76.1809 48.7762 76.1809 48.7762L78.6948 70.9354L75.4463 82.4091Z" fill="#148F97"/>
<path d="M94.8458 82.4092H100.315L98.8927 66.7861L97.9512 47.5823C95.2826 46.2904 94.4363 46.1463 93.0107 45.8464C94.9621 58.6268 95.6427 70.7423 94.8458 82.4092Z" fill="#148F97"/>
<path d="M86.2279 75.6115C86.233 75.6103 86.2381 75.6092 86.2431 75.6079C87.4713 75.3076 86.5423 68.9653 86.5423 68.9653C84.6604 69.3658 82.5981 75.6079 82.5981 75.6079C82.5981 75.6079 82.6084 75.6092 82.6277 75.6115H86.2279Z" fill="#276C9C"/>
<path d="M82.1362 54.4276L79.08 64.8195L86.4203 69.1024C83.2735 70.0228 82.1301 73.202 80.8332 76.208L71.9448 69.0299L77.4033 52.208L82.1362 54.4276Z" fill="#D9F1FF"/>
<path d="M92.4525 75.6854L85.3764 75.6654L83.4762 75.6599C83.0119 74.6559 82.759 73.5725 83.9723 71.9379C83.9723 71.9379 84.2719 71.9091 84.7315 71.8687C85.7789 71.7765 87.6576 71.6245 88.7164 71.6186C91.1737 71.6045 92.4525 75.6854 92.4525 75.6854Z" fill="#FFA46E"/>
<path d="M85.3764 75.6662L83.4762 75.6607C83.0119 74.6568 82.759 73.5733 83.9723 71.9387C83.9723 71.9387 84.2719 71.9099 84.7315 71.8695C84.6328 72.504 84.4092 74.5391 85.3764 75.6662Z" fill="#D17743"/>
<path d="M88.9229 71.6331C88.9981 71.6331 91.1294 71.5064 91.8565 72.064C92.5837 72.6216 93.2607 73.9143 93.2607 73.9143C93.2607 73.9143 93.1353 74.1931 92.5335 73.9903C91.9318 73.7875 91.355 72.8497 91.355 72.8497L89.1987 72.6976L88.9229 71.6331Z" fill="#FFA46E"/>
<path d="M91.5749 75.6951C91.5643 75.6951 91.5549 75.6875 91.5528 75.6766C91.1186 73.4025 89.2662 72.9053 89.2475 72.9005C89.2354 72.8974 89.2281 72.885 89.2312 72.8729C89.2342 72.8606 89.2465 72.8532 89.2585 72.8563C89.2775 72.8611 91.1576 73.3657 91.5971 75.668C91.5995 75.6804 91.5914 75.6923 91.5792 75.6947C91.5778 75.6949 91.5764 75.6951 91.5749 75.6951Z" fill="#D66D2D"/>
<path d="M90.6157 75.6804C90.6066 75.6804 90.5981 75.6749 90.5947 75.6659C90.2283 74.7153 88.5548 74.0553 88.5379 74.0488C88.5263 74.0443 88.5205 74.0311 88.525 74.0194C88.5294 74.0076 88.5425 74.0018 88.5541 74.0063C88.5712 74.0128 90.2631 74.6799 90.6367 75.6493C90.6412 75.6611 90.6355 75.6743 90.6239 75.6788C90.6212 75.6799 90.6184 75.6804 90.6157 75.6804Z" fill="#D66D2D"/>
<path d="M76.1806 48.88C76.0274 48.9278 65.0252 65.2966 68.369 70.4314C69.5826 72.2949 83.7594 76.2301 83.7594 76.2301C83.0963 74.3758 83.7796 72.0485 86.5542 68.9861C86.2895 68.9861 76.9967 65.5209 76.9967 65.5209C76.9967 65.5209 82.4843 55.0299 82.5725 52.2656C82.6608 49.5013 79.3157 47.902 76.1806 48.88Z" fill="#148F97"/>
<path d="M100.688 40.1427C100.688 40.1427 111.104 46.6299 111.996 48.2723C113.083 50.2736 112.128 53.3661 108.453 53.1213C104.778 52.8764 97.79 44.6454 97.79 44.6454L100.688 40.1427Z" fill="#148F97"/>
<path d="M104.439 50.9588C101.831 49.3898 97.8181 44.7719 97.7778 44.7254L97.915 44.604C97.9551 44.6503 101.95 49.2463 104.532 50.8003L104.439 50.9588Z" fill="#D9F1FF"/>
<path d="M112.146 51.3138C111.737 52.261 110.755 53.0698 108.932 53.3786C106.105 53.5952 101.968 53.7718 98.2869 54.0379C98.1142 53.0394 97.8735 51.5987 97.8735 51.5987C97.8735 51.5987 102.914 52.9937 107.237 52.814C109.179 52.7335 110.976 52.335 112.107 51.3495C112.12 51.3378 112.133 51.3261 112.146 51.3138Z" fill="#F2FAFF"/>
<path d="M98.2146 43.4736L97.7188 43.7429L97.145 43.0202L97.9351 42.5911L98.2146 43.4736Z" fill="#333333"/>
<path d="M98.362 46.3398C98.3422 46.3398 98.3223 46.3327 98.3062 46.3183C98.2715 46.2872 98.2684 46.2335 98.2993 46.1984C98.7491 45.6869 97.9716 43.6929 97.634 42.9678C97.6142 42.9254 97.6323 42.8748 97.6742 42.8548C97.7162 42.8348 97.7663 42.853 97.786 42.8955C97.8375 43.006 99.0399 45.6118 98.4249 46.3113C98.4082 46.3301 98.3852 46.3398 98.362 46.3398Z" fill="#333333"/>
<path d="M98.2819 46.6821C98.2543 46.6821 98.2274 46.6684 98.2113 46.6433C98.186 46.604 98.1972 46.5514 98.2361 46.5258L99.0496 45.9928C99.0885 45.9673 99.1405 45.9785 99.1658 46.0179C99.1911 46.0573 99.1799 46.1099 99.141 46.1354L98.3276 46.6684C98.3134 46.6776 98.2975 46.6821 98.2819 46.6821Z" fill="#333333"/>
<path d="M98.3434 46.9564C98.3159 46.9564 98.2889 46.9427 98.2728 46.9176C98.2476 46.8783 98.2587 46.8257 98.2976 46.8001L99.1111 46.2671C99.15 46.2416 99.202 46.2528 99.2274 46.2922C99.2526 46.3316 99.2415 46.3842 99.2025 46.4097L98.389 46.9427C98.3749 46.952 98.3591 46.9564 98.3434 46.9564Z" fill="#333333"/>
<path d="M98.402 47.2329C98.3745 47.2329 98.3475 47.2192 98.3314 47.1941C98.3062 47.1548 98.3173 47.1022 98.3562 47.0766L99.1697 46.5436C99.2086 46.518 99.2606 46.5293 99.286 46.5687C99.3112 46.6081 99.3001 46.6607 99.2611 46.6862L98.4476 47.2192C98.4335 47.2284 98.4177 47.2329 98.402 47.2329Z" fill="#333333"/>
<path d="M98.4635 47.5071C98.436 47.5071 98.409 47.4935 98.3929 47.4683C98.3677 47.429 98.3788 47.3764 98.4178 47.3508L99.2313 46.8179C99.2701 46.7924 99.3222 46.8036 99.3475 46.843C99.3728 46.8823 99.3616 46.9349 99.3227 46.9605L98.5092 47.4935C98.495 47.5027 98.4792 47.5071 98.4635 47.5071Z" fill="#333333"/>
<path d="M98.5226 47.7835C98.4951 47.7835 98.4681 47.7698 98.452 47.7447C98.4268 47.7054 98.4379 47.6528 98.4768 47.6272L99.2903 47.0942C99.3292 47.0687 99.3812 47.0799 99.4066 47.1194C99.4318 47.1587 99.4207 47.2113 99.3817 47.2369L98.5682 47.7698C98.5541 47.779 98.5383 47.7835 98.5226 47.7835Z" fill="#333333"/>
<path d="M98.5851 48.0572C98.5576 48.0572 98.5306 48.0436 98.5145 48.0184C98.4893 47.9791 98.5004 47.9265 98.5393 47.9009L99.3528 47.3679C99.3916 47.3424 99.4437 47.3536 99.469 47.393C99.4943 47.4324 99.4832 47.4849 99.4442 47.5105L98.6307 48.0435C98.6166 48.0528 98.6008 48.0572 98.5851 48.0572Z" fill="#333333"/>
<path d="M98.6442 48.3315C98.6167 48.3315 98.5897 48.3179 98.5736 48.2928C98.5483 48.2534 98.5595 48.2008 98.5984 48.1752L99.4119 47.6422C99.4508 47.6167 99.5028 47.6279 99.5281 47.6673C99.5534 47.7067 99.5423 47.7593 99.5033 47.7848L98.6898 48.3179C98.6757 48.3271 98.6599 48.3315 98.6442 48.3315Z" fill="#333333"/>
<path d="M98.7057 48.608C98.6782 48.608 98.6512 48.5943 98.6351 48.5692C98.6099 48.5299 98.621 48.4773 98.6599 48.4517L99.4734 47.9187C99.5123 47.8932 99.5643 47.9044 99.5897 47.9438C99.6149 47.9832 99.6038 48.0358 99.5649 48.0613L98.7513 48.5943C98.7372 48.6036 98.7214 48.608 98.7057 48.608Z" fill="#333333"/>
<path d="M98.7643 48.8822C98.7368 48.8822 98.7098 48.8686 98.6937 48.8435C98.6685 48.8042 98.6796 48.7516 98.7185 48.726L99.532 48.193C99.5709 48.1675 99.6229 48.1787 99.6483 48.2181C99.6735 48.2574 99.6624 48.31 99.6235 48.3356L98.8099 48.8686C98.7958 48.8779 98.78 48.8822 98.7643 48.8822Z" fill="#333333"/>
<path d="M98.8258 49.1587C98.7983 49.1587 98.7713 49.1451 98.7552 49.12C98.73 49.0806 98.7411 49.028 98.78 49.0025L99.5935 48.4695C99.6324 48.444 99.6844 48.4552 99.7098 48.4946C99.735 48.5339 99.7239 48.5865 99.685 48.6121L98.8715 49.145C98.8573 49.1543 98.8415 49.1587 98.8258 49.1587Z" fill="#333333"/>
<path d="M98.8873 49.4323C98.8598 49.4323 98.8329 49.4187 98.8167 49.3935C98.7915 49.3542 98.8026 49.3016 98.8416 49.276L99.6551 48.7431C99.6939 48.7175 99.746 48.7288 99.7713 48.7681C99.7965 48.8075 99.7854 48.8601 99.7465 48.8856L98.933 49.4186C98.9189 49.4279 98.903 49.4323 98.8873 49.4323Z" fill="#333333"/>
<path d="M98.9464 49.7067C98.9189 49.7067 98.8919 49.6931 98.8758 49.6679C98.8506 49.6286 98.8617 49.576 98.9007 49.5504L99.7141 49.0175C99.753 48.9919 99.8051 49.0032 99.8304 49.0425C99.8556 49.0819 99.8445 49.1345 99.8056 49.16L98.9921 49.693C98.9779 49.7023 98.9621 49.7067 98.9464 49.7067Z" fill="#333333"/>
<path d="M99.0089 49.9831C98.9814 49.9831 98.9544 49.9694 98.9383 49.9443C98.9131 49.905 98.9242 49.8524 98.9632 49.8268L99.7766 49.2938C99.8155 49.2683 99.8676 49.2795 99.8929 49.3189C99.9181 49.3583 99.907 49.4109 99.8681 49.4364L99.0546 49.9694C99.0404 49.9787 99.0246 49.9831 99.0089 49.9831Z" fill="#333333"/>
<path d="M99.068 50.2574C99.0405 50.2574 99.0135 50.2437 98.9974 50.2186C98.9722 50.1793 98.9833 50.1267 99.0222 50.1011L99.8357 49.5681C99.8746 49.5426 99.9266 49.5538 99.952 49.5932C99.9772 49.6326 99.9661 49.6852 99.9271 49.7107L99.1136 50.2437C99.0995 50.253 99.0837 50.2574 99.068 50.2574Z" fill="#333333"/>
<path d="M99.1295 50.5339C99.102 50.5339 99.0751 50.5202 99.0589 50.4951C99.0337 50.4558 99.0448 50.4032 99.0838 50.3776L99.8973 49.8446C99.9362 49.8191 99.9882 49.8303 100.014 49.8697C100.039 49.9091 100.028 49.9617 99.9887 49.9872L99.1752 50.5202C99.1611 50.5295 99.1452 50.5339 99.1295 50.5339Z" fill="#333333"/>
<path d="M99.1881 50.8074C99.1606 50.8074 99.1336 50.7938 99.1175 50.7687C99.0923 50.7294 99.1034 50.6767 99.1424 50.6512L99.9558 50.1182C99.9947 50.0926 100.047 50.1039 100.072 50.1433C100.097 50.1826 100.086 50.2352 100.047 50.2608L99.2338 50.7938C99.2196 50.803 99.2038 50.8074 99.1881 50.8074Z" fill="#333333"/>
<path d="M100.18 61.2807C100.174 61.2807 100.169 61.2802 100.164 61.2791C100.118 61.2701 100.088 61.2255 100.097 61.1795C101.052 56.2473 100.625 51.8451 100.074 51.0917C99.8455 50.7794 99.4969 50.9724 99.4822 50.9808C99.4418 51.0039 99.3905 50.9893 99.3677 50.9484C99.345 50.9075 99.3593 50.8557 99.3998 50.8327C99.5693 50.7364 99.9565 50.6454 100.209 50.9907C100.754 51.7364 101.267 56.0202 100.262 61.2121C100.254 61.2526 100.219 61.2807 100.18 61.2807Z" fill="#333333"/>
<path d="M42.6328 33.7337C42.6328 33.7337 42.7155 42.1295 49.0375 42.9232C54.6985 43.0902 57.6705 43.4026 55.3553 32.0948C53.9504 27.0407 42.7155 28.3036 42.6328 33.7337Z" fill="#C95138"/>
<path d="M60.6493 79.2322H37.8096L39.3817 47.6221C45.7069 44.9651 52.2317 45.3507 59.0772 47.6221L60.6493 79.2322Z" fill="#9EDDFF"/>
<path d="M44.7285 50.5333C44.7285 50.8093 43.8671 62.971 47.0887 67.8284C50.3103 72.6857 42.8842 79.475 42.8842 79.475C35.9495 77.1015 40.1964 48.7118 44.7285 50.5333Z" fill="#66C2F5"/>
<path d="M52.8038 47.0491C52.8038 47.0491 52.1356 49.6033 49.4264 49.7185C46.7173 49.8337 45.8862 47.0491 45.8862 47.0491L46.4645 42.4413L46.8113 39.6788H51.8787L52.4464 44.2016L52.8038 47.0491Z" fill="#F7A594"/>
<path d="M52.4462 44.2016C49.9958 44.6267 47.7875 43.6153 46.4644 42.4413L46.8112 39.6788H51.8785L52.4462 44.2016Z" fill="#DE7964"/>
<path d="M46.0923 43.9929C46.0923 44.17 49.2459 49.6248 49.2459 49.6248C49.2459 49.6248 46.5128 51.5021 46.5128 51.3605C46.5128 51.2188 45.2163 46.1536 45.2163 46.1536L46.0923 43.9929Z" fill="#80D3FF"/>
<path d="M52.6112 44.2762C52.6112 44.4533 49.1772 49.6956 49.1772 49.6956C49.1772 49.6956 51.7001 51.7855 51.7001 51.6438C51.7001 51.5021 53.4872 46.4369 53.4872 46.4369L52.6112 44.2762Z" fill="#80D3FF"/>
<path d="M43.1527 82.2816L35.1943 81.7771L38.2565 65.8271L38.2519 65.7473L38.0107 61.5277L37.9146 59.8473L37.6371 54.9915L37.3828 50.5416L37.2767 48.6848C37.2767 48.6848 38.8051 47.7009 40.8677 46.887C42.0675 46.4136 43.4481 45.9973 44.8136 45.8658C44.4781 61.6651 45.35 70.4933 43.1527 82.2816Z" fill="#148F97"/>
<path d="M42.4274 57.8126C41.625 58.6283 40.7161 59.5069 39.6266 60.3674C39.1282 60.7609 38.5924 61.1505 38.0116 61.5286C36.3194 62.63 34.2471 63.6321 31.6202 64.3429C31.3299 64.4551 31.0543 64.5042 30.796 64.4981C28.7528 64.4517 27.7846 60.9618 29.0378 57.9379C29.4381 56.9721 30.065 56.0535 30.9561 55.3101L37.3838 50.5425L40.2538 48.4135C40.2566 48.412 40.2593 48.4108 40.262 48.4092C43.2923 46.843 46.0518 54.6474 42.4274 57.8126Z" fill="#148F97"/>
<path d="M40.0985 58.5187L39.6265 60.3678L38.2529 65.7485L38.0116 61.529C36.3194 62.6304 34.2471 63.6325 31.6202 64.3433C31.3299 64.4555 31.0543 64.5046 30.796 64.4985C28.7528 64.4521 27.7846 60.9622 29.0378 57.9384C29.1478 59.8323 29.6025 61.4869 30.7892 61.8602C31.8198 62.1843 33.2235 61.9032 34.6282 61.3908C35.7943 60.965 36.961 60.3798 37.9156 59.8486C39.1986 59.1349 40.0985 58.5187 40.0985 58.5187Z" fill="#D9F1FF"/>
<path d="M53.934 46.1698C57.6465 46.5272 61.0186 48.3792 61.0186 48.3792L60.0668 65.8262L63.1289 81.7763H52.6807C53.3945 75.4276 55.2605 61.1054 53.934 46.1698Z" fill="#148F97"/>
<path d="M60.9169 48.3342C60.9169 48.3342 65.4761 55.3279 66.2394 66.6576C66.4501 69.7841 59.4452 80.6232 59.4452 80.6232H51.376L59.3171 68.2584C59.3171 68.2584 53.6939 56.7473 55.2949 52.9925C56.8959 49.2378 59.1055 47.4567 60.9169 48.3342Z" fill="#148F97"/>
<path d="M51.5729 80.4593L51.4512 80.3819L59.8058 66.9653L57.1392 59.5055L57.2744 59.4562L59.9648 66.9826L59.9461 67.0126L51.5729 80.4593Z" fill="#D9F1FF"/>
<path d="M46.2016 43.9979C45.8094 47.9195 44.722 63.7715 44.722 63.7715C42.3211 58.458 41.2443 54.6015 41.2443 54.6015L42.9878 52.7068L40.1914 48.0017C42.1174 45.3077 46.2016 43.9979 46.2016 43.9979Z" fill="#D9F1FF"/>
<path d="M52.4824 44.0277C52.6796 48.2987 54.6319 54.0663 54.2476 63.6332C56.6485 58.3198 57.3664 54.554 57.3664 54.554L55.6228 52.6593L58.4193 47.9542C56.9338 45.71 52.4824 44.0277 52.4824 44.0277Z" fill="#D9F1FF"/>
<path d="M54.2788 60.9953C54.2788 60.9953 47.4433 59.0375 49.1224 53.1062C49.9508 50.18 54.8808 48.7791 52.1857 44.3037C52.1739 44.2837 52.1617 44.2634 52.1493 44.2431L51.7815 40.9469C51.7815 40.9469 54.3341 40.3358 55.2745 39.0796C54.572 40.9809 55.3749 41.9328 55.7879 42.3313C57.4107 43.8971 59.1198 45.553 59.1441 48.371C59.1906 53.7245 53.8074 53.6026 54.2788 60.9953Z" fill="#C95138"/>
<path d="M54.613 36.3138C55.8255 37.9225 53.4434 42.4699 49.3749 42.484C46.8081 42.3808 42.7584 39.9316 43.8062 34.8214C43.0727 30.5575 45.6716 26.5287 49.3749 26.5287C53.0783 26.5287 55.4383 31.8182 54.613 36.3138Z" fill="#F7A594"/>
<path d="M55.1609 37.3152C55.8317 37.3152 56.3755 36.7655 56.3755 36.0874C56.3755 35.4093 55.8317 34.8596 55.1609 34.8596C54.4901 34.8596 53.9463 35.4093 53.9463 36.0874C53.9463 36.7655 54.4901 37.3152 55.1609 37.3152Z" fill="#F7A594"/>
<path d="M52.167 29.5895C50.425 33.1112 44.0375 34.7354 44.0375 34.7354L43.0283 34.8829L42.7468 34.9241C42.7468 34.9241 42.2128 31.8353 44.1564 29.001C46.1003 26.1667 49.1938 26.4242 49.1938 26.4242C49.1938 26.4242 49.8146 26.4032 50.5128 26.5549C51.6659 26.8055 53.031 27.5268 52.167 29.5895Z" fill="#C95138"/>
<path d="M50.5128 26.5549C48.4204 26.8587 46.4243 27.5531 44.9395 29.1302C43.5952 30.5582 43.1589 33.5222 43.0283 34.8829L42.7468 34.9241C42.7468 34.9241 42.2128 31.8353 44.1564 29.001C46.1003 26.1667 49.1938 26.4242 49.1938 26.4242C49.1938 26.4242 49.8146 26.4032 50.5128 26.5549Z" fill="#F56245"/>
<path d="M49.5034 29.4757C48.4735 27.1178 49.3002 26.4491 49.3002 26.4491C49.3002 26.4491 52.3936 26.1914 54.3375 29.0258C56.2813 31.8602 55.0868 34.8388 55.0868 34.8388C55.0868 34.8388 50.3996 35.662 49.5034 29.4757Z" fill="#C95138"/>
<path d="M43.4675 37.2487C44.1383 37.2487 44.6821 36.699 44.6821 36.0209C44.6821 35.3428 44.1383 34.7931 43.4675 34.7931C42.7967 34.7931 42.2529 35.3428 42.2529 36.0209C42.2529 36.699 42.7967 37.2487 43.4675 37.2487Z" fill="#F7A594"/>
<path d="M43.9132 37.7993C43.9132 37.7993 44.9186 39.6278 46.8702 40.1185C46.9777 40.1455 47.0435 40.2553 47.0191 40.3645C46.9941 40.4767 46.8837 40.5469 46.7729 40.5207C46.2051 40.3864 44.6063 39.8247 43.5762 38.0194L43.9132 37.7993Z" fill="black"/>
<path d="M43.8267 38.041C44.2351 37.9109 44.4232 37.3465 44.2468 36.7804C44.0703 36.2143 43.5962 35.8608 43.1878 35.9909C42.7793 36.121 42.5913 36.6854 42.7677 37.2515C42.9441 37.8176 43.4183 38.171 43.8267 38.041Z" fill="black"/>
<path d="M43.5603 38.191C43.9922 38.0534 44.1911 37.4566 44.0045 36.8579C43.818 36.2593 43.3165 35.8855 42.8846 36.023C42.4527 36.1606 42.2538 36.7574 42.4404 37.3561C42.627 37.9548 43.1284 38.3286 43.5603 38.191Z" fill="#148F97"/>
<path d="M43.5396 37.0393C43.6471 37.3844 43.5325 37.7284 43.2835 37.8077C43.0346 37.887 42.7455 37.6715 42.638 37.3264C42.5305 36.9814 42.6451 36.6373 42.8941 36.558C43.1431 36.4788 43.4321 36.6942 43.5396 37.0393Z" fill="#B8E5FF"/>
<path d="M44.1883 37.5072C44.1836 37.5072 44.1788 37.5068 44.174 37.506C44.1268 37.4981 44.095 37.453 44.1028 37.4053C44.2418 36.5623 43.935 35.6433 43.5711 35.2755C43.1472 34.8469 42.6213 35.1886 42.5991 35.2033C42.5592 35.2298 42.5055 35.2188 42.4792 35.1785C42.4529 35.1383 42.4637 35.0841 42.5034 35.0574C42.5101 35.053 43.1685 34.621 43.6935 35.1517C44.0964 35.559 44.4236 36.5242 44.2736 37.4341C44.2665 37.4769 44.2298 37.5072 44.1883 37.5072Z" fill="black"/>
<path d="M43.7539 34.7518C43.7539 34.7518 49.4487 33.3298 50.817 30.0026C51.6799 27.7097 50.2869 26.501 50.2869 26.501C50.2869 26.501 51.6899 27.0572 51.6429 29.4294C51.5693 33.1484 43.7539 34.7518 43.7539 34.7518Z" fill="#A33A23"/>
<path d="M49.1418 37.9299C48.9464 37.9299 48.5192 37.9068 48.4556 37.7083C48.3799 37.472 49.0537 35.6211 49.1895 35.2525C49.2012 35.2206 49.2363 35.2044 49.2677 35.2163C49.2991 35.2281 49.3151 35.2635 49.3034 35.2953C48.9114 36.3592 48.5303 37.5386 48.5713 37.6705C48.6053 37.7769 48.9752 37.8142 49.215 37.8058C49.2157 37.8058 49.2164 37.8058 49.2171 37.8058C49.2497 37.8058 49.2767 37.8319 49.2778 37.8651C49.279 37.899 49.2527 37.9275 49.2192 37.9286C49.2024 37.9292 49.1756 37.9299 49.1418 37.9299Z" fill="#BA4228"/>
<path d="M48.0068 39.7063C48.0068 39.7063 50.0885 39.9326 51.8344 38.937C51.3644 40.8829 49.2379 41.9011 48.0068 39.7063Z" fill="#A33A23"/>
<path d="M46.3712 36.1485C46.2194 36.1485 46.0952 36.023 46.0952 35.8696V35.3117C46.0952 35.1583 46.2194 35.0327 46.3712 35.0327C46.5229 35.0327 46.6471 35.1582 46.6471 35.3117V35.8696C46.6471 36.023 46.523 36.1485 46.3712 36.1485Z" fill="black"/>
<path d="M52.2393 36.1949C52.0876 36.1949 51.9634 36.0694 51.9634 35.9159V35.3581C51.9634 35.2047 52.0875 35.0791 52.2393 35.0791C52.3911 35.0791 52.5153 35.2046 52.5153 35.3581V35.9159C52.5153 36.0694 52.3911 36.1949 52.2393 36.1949Z" fill="black"/>
<path d="M52.9047 36.8182C52.9047 36.9468 52.5954 37.051 52.2138 37.051C51.8323 37.051 51.5229 36.9468 51.5229 36.8182C51.5229 36.6897 51.8323 36.5854 52.2138 36.5854C52.5954 36.5854 52.9047 36.6897 52.9047 36.8182Z" fill="#F79985"/>
<path d="M47.0971 36.8182C47.0971 36.9468 46.7878 37.051 46.4062 37.051C46.0247 37.051 45.7153 36.9468 45.7153 36.8182C45.7153 36.6897 46.0247 36.5854 46.4062 36.5854C46.7878 36.5854 47.0971 36.6897 47.0971 36.8182Z" fill="#F79985"/>
<path d="M54.8781 36.7612C54.8445 36.7612 54.8174 36.7337 54.8174 36.6998C54.8174 36.6611 54.8238 35.751 55.3838 35.5991C55.4163 35.5902 55.4495 35.6097 55.4583 35.6425C55.467 35.6753 55.4477 35.709 55.4153 35.7178C54.9452 35.8453 54.939 36.6913 54.9389 36.6998C54.9389 36.7337 54.9117 36.7612 54.8781 36.7612Z" fill="#BA4228"/>
<path d="M38.1755 50.4418L35.9302 47.8623L39.8743 44.1056L41.6953 45.2629L38.1755 50.4418Z" fill="#F7A594"/>
<path d="M39.7763 44.2492C39.7954 44.0277 40.6107 40.0588 40.5537 40.1528C41.3643 39.112 43.1308 40.4079 43.1988 42.0876C43.1988 42.0876 42.4487 44.9419 41.4616 45.5296C39.6803 46.5782 39.7763 44.2492 39.7763 44.2492Z" fill="#F7A594"/>
<path d="M40.5503 40.1456C40.5503 40.1456 41.9932 36.1084 42.0355 36.1289C42.0779 36.1494 42.4425 36.2257 42.3834 36.8233C42.3243 37.4208 41.346 40.7088 41.346 40.7088L40.5503 40.1456Z" fill="#F7A594"/>
<path d="M41.2134 40.4745C41.2134 40.4745 43.3397 36.8438 43.3798 36.8732C43.4199 36.9026 43.7835 37.0522 43.6095 37.6604C43.4354 38.2685 42.0791 40.9412 42.0791 40.9412L41.2134 40.4745Z" fill="#F7A594"/>
<path d="M41.3745 41.1367C41.4385 41.021 42.7624 39.957 43.0638 39.8183C43.3652 39.6796 45.0345 39.6509 45.0345 39.6509C45.0345 39.6509 45.1195 40.1285 44.4804 40.188C43.8413 40.2475 43.3817 40.5322 43.3817 40.5322L42.3348 42.2768L41.3745 41.1367Z" fill="#F7A594"/>
<path d="M42.2974 42.2443C42.2974 42.2443 42.6664 40.9767 43.4821 40.9033C44.2629 40.833 45.154 41.6387 45.154 41.6387C45.154 41.6387 45.1344 41.9202 44.5905 41.8197C44.0465 41.7193 43.9064 41.5778 43.9064 41.5778L43.3506 41.7438L42.9099 43.0359L42.2974 42.2443Z" fill="#F7A594"/>
<path d="M38.3074 43.8001C37.9507 43.6086 37.5914 43.4181 37.224 43.2465L31.185 54.608L29.2967 57.2166C26.8737 61.1827 30.115 66.824 35.5834 61.6442C36.6159 60.6661 36.907 59.4142 36.907 59.4142L38.4308 55.5916L40.913 49.3638L42.9021 46.62C41.4368 45.5736 39.8915 44.6507 38.3074 43.8001Z" fill="#148F97"/>
<path d="M35.5262 61.0859L35.4106 60.9996C35.8494 60.3996 36.178 59.7217 36.4959 59.0662C36.5632 58.9273 36.6305 58.7886 36.6986 58.6509C37.1177 57.8338 37.484 57.0639 37.852 56.2268C38.0646 55.7327 38.2774 55.2413 38.4894 54.7517C39.2012 53.108 39.8735 51.5554 40.5255 49.9312L40.5323 49.9183C41.0467 49.1383 41.5969 48.3657 42.129 47.6185C42.3504 47.3076 42.5793 46.9861 42.8001 46.6718L42.9173 46.7559C42.6962 47.0706 42.4671 47.3923 42.2456 47.7034C41.7156 48.4476 41.1677 49.217 40.6559 49.9927C40.004 51.6164 39.3009 53.2399 38.6211 54.8099C38.4091 55.2994 38.1964 55.7906 37.9836 56.2853C37.6142 57.1256 37.2466 57.898 36.8267 58.7167C36.7592 58.8532 36.6921 58.9915 36.6249 59.1301C36.3043 59.7915 35.9727 60.4753 35.5262 61.0859Z" fill="#D9F1FF"/>
</g>
<path d="M69.4204 69.6805C69.0763 70.3058 68.6321 70.9349 68.067 71.5579C68.067 71.5579 66.8868 69.5806 66.676 66.9634C66.5144 64.956 66.9232 62.572 68.8723 60.4154C68.8723 60.4154 72.0311 64.9373 69.4204 69.6805Z" fill="#5FB38C"/>
<path d="M69.4197 69.6794C69.0756 70.3047 68.6314 70.9337 68.0663 71.5568C68.0663 71.5568 66.8861 69.5794 66.6753 66.9623L69.4197 69.6794Z" fill="#379168"/>
<path d="M68.0344 71.4828C67.967 70.4082 67.9645 69.2985 67.9994 68.2338L67.0474 67.034L67.0806 67.007L68.0017 68.1676C68.0328 67.2591 68.0909 66.3847 68.1588 65.5945L68.1428 65.6076L67.1829 64.398L67.2162 64.3711L68.1616 65.5624C68.2021 65.0943 68.2459 64.6561 68.2894 64.2584C68.2899 64.2542 68.2904 64.25 68.2908 64.2458L68.2907 64.2456L68.2909 64.2455C68.5132 62.2207 68.7764 60.7849 68.779 60.7706L68.821 60.7786C68.8183 60.7927 68.559 62.208 68.3378 64.2096L69.6402 63.2111L69.666 63.2455L68.3313 64.2687C68.2588 64.9308 68.1857 65.7051 68.1285 66.5428L69.7747 65.5288L69.7969 65.5657L68.125 66.5955C68.0228 68.115 67.9741 69.8387 68.0771 71.4801L68.0344 71.4828Z" fill="#379168"/>
<path d="M69.8367 71.6943C69.246 72.0887 68.5649 72.4397 67.7792 72.729C67.7792 72.729 67.6344 70.4242 68.6416 68.0039C69.4143 66.1474 70.8648 64.2229 73.5784 63.2183C73.5784 63.2183 74.3174 68.7033 69.8367 71.6943Z" fill="#74C9A2"/>
<path d="M69.8367 71.6953C69.246 72.0897 68.5649 72.4407 67.7792 72.73C67.7792 72.73 67.6344 70.4252 68.6416 68.0049L69.8367 71.6953Z" fill="#379168"/>
<path d="M72.989 66.0991L72.9818 66.0566L71.3707 66.3352C72.4803 64.6624 73.3563 63.5277 73.3651 63.5163L73.3315 63.4897C73.3226 63.5012 72.4339 64.6524 71.3127 66.3453L71.3125 66.3453L71.3126 66.3455C71.3102 66.349 71.3079 66.3525 71.3056 66.3561C71.0854 66.6885 70.8466 67.0569 70.5971 67.4534L70.3019 65.9555L70.2601 65.964L70.5598 67.4847L70.58 67.4806C70.1592 68.15 69.7086 68.8987 69.2664 69.6903L69.2343 69.7479C68.7174 70.6763 68.2132 71.6621 67.7827 72.647L67.8218 72.6644C68.4793 71.1601 69.3092 69.6533 70.0932 68.3528L72.0466 68.2188L72.0437 68.1757L70.1204 68.3078C70.5534 67.5911 70.9716 66.9383 71.338 66.3846L72.989 66.0991Z" fill="#379168"/>
<path d="M69.1784 73.0158C69.1784 73.0158 69.7072 64.5969 62.3941 61.8894C62.3941 61.8894 61.2864 70.1094 69.1784 73.0158Z" fill="#74C9A2"/>
<path d="M69.1722 72.9202C68.6686 71.768 68.0788 70.6148 67.4741 69.5287L67.8218 67.764L67.7729 67.7541L67.4365 69.4612C66.9191 68.5352 66.392 67.6593 65.8998 66.8761L65.9234 66.8809L66.274 65.1018L66.2251 65.092L65.8798 66.8443C65.5879 66.3805 65.3084 65.9495 65.051 65.5605C65.0482 65.5564 65.0455 65.5523 65.0428 65.5482L65.0428 65.548L65.0426 65.548C63.7309 63.5676 62.6913 62.2208 62.6809 62.2074L62.6416 62.2385C62.6519 62.2518 63.6766 63.5793 64.9747 65.5362L63.0899 65.2103L63.0815 65.2601L65.0131 65.5941C65.4418 66.2418 65.931 67.0056 66.4376 67.8439L64.1876 67.6894L64.1842 67.7398L66.4694 67.8967C67.3866 69.4181 68.3574 71.1808 69.1267 72.9407L69.1722 72.9202Z" fill="#379168"/>
<path d="M71.8077 70.4377L71.0709 76.4085H65.6094L64.9662 71.1963L64.8726 70.4377H71.8077Z" fill="#E3733F"/>
<path d="M71.8077 70.4377L71.0709 76.4085H68.2532C70.0277 75.6102 71.1125 73.6642 70.9132 72.5471C70.6907 71.2993 65.4499 71.2025 64.9662 71.1963L64.8726 70.4377H71.8077Z" fill="#DB542E"/>
<path d="M72.003 70.3983H64.6768V71.0687H72.003V70.3983Z" fill="#E3733F"/>
<path d="M71.8291 76.4247H64.7109L64.4634 75.9314H72.0765L71.8291 76.4247Z" fill="#DB542E"/>
</svg>
