<svg width="60" height="60" viewBox="0 0 60 60" fill="none" xmlns="http://www.w3.org/2000/svg">
<g clip-path="url(#clip0_334_1740)">
<path d="M34.976 13.0643C34.976 13.0643 43.9289 9.97299 38.4568 1.16721C38.4568 1.16721 29.8354 4.89197 34.976 13.0643ZM0.585649 29.7629C0.461491 29.8931 0.365619 30.0475 0.30407 30.2165C0.242521 30.3855 0.216629 30.5654 0.228023 30.7449C1.10044 45.9013 13.89 57.8547 29.3458 57.9562C44.8016 58.0577 57.7469 46.2737 58.8183 31.1286C58.832 30.9495 58.8084 30.7694 58.7491 30.5998C58.6898 30.4301 58.596 30.2746 58.4736 30.143C58.3484 30.0092 58.1972 29.9024 58.0293 29.8291C57.8614 29.7558 57.6803 29.7175 57.4971 29.7166L19.9771 29.4703L13.1633 18.8994C13.4262 18.318 13.5642 17.6879 13.5683 17.0498C13.5849 14.5179 11.5455 12.452 9.01447 12.4354C6.48206 12.4187 4.41615 14.4577 4.39953 16.9896C4.38433 19.3048 6.08957 21.225 8.31691 21.5504L11.9604 29.4177L1.56763 29.3494C1.1963 29.347 0.837709 29.4978 0.585649 29.7629ZM32.5879 52.9345C32.5265 52.936 32.4654 52.9252 32.4083 52.9027C32.3511 52.8802 32.2991 52.8465 32.2552 52.8035C32.2114 52.7605 32.1766 52.7091 32.153 52.6524C32.1294 52.5957 32.1174 52.5348 32.1178 52.4734C32.1182 52.412 32.1309 52.3512 32.1552 52.2948C32.1795 52.2384 32.2148 52.1875 32.2592 52.145C32.3036 52.1025 32.356 52.0694 32.4135 52.0476C32.4709 52.0258 32.5321 52.0157 32.5935 52.018C32.7125 52.0225 32.8251 52.0731 32.9074 52.1592C32.9898 52.2452 33.0354 52.3599 33.0347 52.4789C33.0339 52.598 32.9869 52.7121 32.9035 52.7972C32.8202 52.8822 32.707 52.9314 32.5879 52.9345ZM50.952 42.2487C50.7846 42.596 46.7162 50.7734 34.9519 52.4865C34.8924 52.4952 34.8316 52.4921 34.7733 52.4773C34.7149 52.4625 34.66 52.4363 34.6118 52.4002C34.5636 52.3642 34.5229 52.319 34.4922 52.2672C34.4615 52.2154 34.4413 52.158 34.4328 52.0984C34.4154 51.9782 34.4465 51.856 34.5191 51.7586C34.5918 51.6613 34.7001 51.5968 34.8204 51.5792C46.0817 49.939 50.0876 41.9304 50.1266 41.8495C50.1795 41.74 50.2737 41.6559 50.3885 41.6159C50.5034 41.5759 50.6294 41.5831 50.7389 41.636C50.8484 41.6888 50.9324 41.7831 50.9725 41.8979C51.0125 42.0127 51.0053 42.1387 50.9524 42.2483L50.952 42.2487ZM9.34408 21.587C9.99077 21.5363 10.6193 21.3486 11.1878 21.0363C11.7564 20.724 12.252 20.2943 12.6417 19.7757L12.6394 19.7789L18.8819 29.4631L12.9736 29.4243L9.34408 21.587ZM57.4911 30.6335C57.6126 30.6343 57.7223 30.6818 57.8006 30.7662C57.8376 30.806 57.8659 30.8531 57.8837 30.9044C57.9015 30.9558 57.9085 31.0103 57.9041 31.0644C57.837 32.0019 57.7219 32.9353 57.5593 33.861C57.5296 33.8549 57.5017 33.8428 57.47 33.8426L1.54054 33.4754C1.50845 33.4752 1.48087 33.4869 1.45103 33.4931C1.30068 32.5654 1.19802 31.6305 1.14345 30.6922C1.13973 30.6379 1.14736 30.5834 1.16585 30.5323C1.18434 30.4811 1.21329 30.4343 1.25085 30.3949C1.29097 30.3532 1.33929 30.3202 1.39278 30.2981C1.44626 30.276 1.50374 30.2651 1.56161 30.2663L57.4911 30.6335Z" fill="#2CECB1"/>
<path d="M32.6785 24.5966C32.6785 24.5966 39.7089 11.2778 23.455 6.19769C23.455 6.19769 17.5208 19.9478 32.6785 24.5966ZM28.4994 15.9066C28.6086 15.853 28.7345 15.845 28.8495 15.8843C28.9645 15.9235 29.0593 16.0069 29.1129 16.116L32.42 22.839L31.6053 23.2605L28.29 16.5204C28.2634 16.4664 28.2478 16.4076 28.2439 16.3475C28.24 16.2874 28.2481 16.2271 28.2675 16.1701C28.287 16.1131 28.3175 16.0605 28.3573 16.0153C28.397 15.97 28.4454 15.9331 28.4994 15.9066ZM27.3444 13.5586C27.466 13.5594 27.5823 13.6084 27.6677 13.695C27.7531 13.7815 27.8006 13.8984 27.7998 14.02C27.799 14.1416 27.75 14.2579 27.6634 14.3433C27.5769 14.4287 27.46 14.4762 27.3384 14.4754C27.2168 14.4746 27.1005 14.4256 27.0151 14.339C26.9297 14.2525 26.8822 14.1356 26.883 14.014C26.8838 13.8924 26.9328 13.7761 27.0194 13.6907C27.1059 13.6053 27.2228 13.5578 27.3444 13.5586Z" fill="#2CECB1"/>
<path d="M36.6048 29.2067C59.2123 26.6791 55.0393 4.57103 55.0393 4.57103C30.7677 7.42282 36.6048 29.2067 36.6048 29.2067ZM48.4446 11.8631C48.5662 11.8639 48.6825 11.9129 48.7679 11.9995C48.8533 12.086 48.9008 12.2029 48.9 12.3245C48.8993 12.4461 48.8502 12.5624 48.7636 12.6478C48.6771 12.7332 48.5602 12.7807 48.4386 12.7799C48.317 12.7791 48.2007 12.7301 48.1153 12.6435C48.0299 12.557 47.9824 12.4401 47.9832 12.3185C47.984 12.1969 48.033 12.0806 48.1196 11.9952C48.2061 11.9098 48.323 11.8623 48.4446 11.8631ZM37.2293 27.6498L46.6775 14.3395C46.7115 14.2884 46.7554 14.2447 46.8066 14.2108C46.8578 14.177 46.9153 14.1538 46.9756 14.1426C47.036 14.1314 47.0979 14.1325 47.1579 14.1457C47.2178 14.1589 47.2745 14.184 47.3245 14.2195C47.3746 14.255 47.417 14.3002 47.4492 14.3524C47.4815 14.4046 47.503 14.4627 47.5123 14.5234C47.5217 14.584 47.5188 14.646 47.5038 14.7055C47.4888 14.765 47.462 14.8209 47.425 14.8698L38.0485 28.0806L37.2293 27.6507L37.2293 27.6498Z" fill="#2CECB1"/>
</g>
<defs>
<clipPath id="clip0_334_1740">
<rect width="58.6814" height="58.6814" fill="white" transform="translate(0.38527) rotate(0.376176)"/>
</clipPath>
</defs>
</svg>
