<svg width="39" height="44" viewBox="0 0 39 44" fill="none" xmlns="http://www.w3.org/2000/svg">
<path d="M31.6387 25.0205C32.0496 25.969 32.2886 27.1296 32.3414 28.4717C33.7282 28.7895 34.7659 30.0298 34.7659 31.5111C34.7659 33.2314 33.3662 34.6311 31.6459 34.6311C29.9256 34.6311 28.5259 33.2314 28.5259 31.5111C28.5259 30.0466 29.5411 28.8192 30.9034 28.4837C30.8434 27.1507 30.5246 25.1227 29.22 24.1214C28.5467 23.9457 27.8603 23.8248 27.1675 23.76C27.1157 26.0952 19.3973 31.8581 19.3973 31.8581C19.3973 31.8581 11.6765 26.0962 11.6242 23.761C10.8557 23.8312 10.0953 23.9714 9.35232 24.18C8.40048 24.9336 7.908 26.3376 7.88256 28.3786C8.16672 28.5442 8.39209 28.7944 8.5272 29.0942C9.55248 29.5786 10.4582 30.5971 11.1518 32.0472C11.268 32.291 11.2834 32.5666 11.1979 32.8181C11.6136 33.888 11.8512 35.0573 11.8512 36.0394C11.8512 37.4155 11.8512 38.7168 10.3512 39.0509C10.1886 39.1864 9.98351 39.2604 9.77184 39.2602H8.7696C8.52805 39.2598 8.29649 39.1637 8.12565 38.9929C7.9548 38.8222 7.85859 38.5907 7.85808 38.3491L7.85904 38.3136C7.8695 38.0787 7.96984 37.8567 8.13932 37.6937C8.30879 37.5307 8.53444 37.439 8.7696 37.4376H9.77184C9.87398 37.4377 9.9754 37.4548 10.0718 37.4885C10.1001 37.4825 10.1271 37.4719 10.152 37.4573C10.2634 37.2595 10.2634 36.4359 10.2634 36.0403C10.2634 35.2426 10.0637 34.2792 9.71376 33.384C9.53185 33.2809 9.38581 33.1246 9.2952 32.9362C8.68752 31.6637 7.86096 30.8419 7.18992 30.8419C6.50352 30.8419 5.63568 31.7309 5.0304 33.0519C4.93019 33.2678 4.75888 33.4429 4.54512 33.5477C4.2288 34.404 4.05504 35.2858 4.05504 36.0399C4.05504 36.372 4.05504 37.2533 4.18176 37.4606C4.1832 37.4606 4.21152 37.4779 4.2912 37.4976C4.39488 37.4578 4.50624 37.4371 4.6176 37.4371H5.62176C5.84742 37.4374 6.06497 37.5213 6.23236 37.6726C6.39974 37.824 6.50508 38.032 6.528 38.2565L6.5328 38.3127C6.5328 38.8507 6.12384 39.2606 5.62176 39.2606H4.6176C4.4184 39.2606 4.22592 39.1939 4.06752 39.073C3.49392 38.965 3.08976 38.712 2.83392 38.3002C2.52384 37.8024 2.4672 37.1487 2.4672 36.0399C2.4672 35.0674 2.69184 33.9471 3.09984 32.8771C3.03929 32.6493 3.06052 32.4074 3.15984 32.1936C3.58464 31.2643 4.12512 30.4685 4.72224 29.893C5.03239 29.5896 5.38643 29.3345 5.77248 29.1365C5.90829 28.8181 6.14399 28.5526 6.444 28.38C6.45936 27.1008 6.65616 25.9963 7.02 25.0858C2.85456 27.1987 0 31.5202 0 36.5107C0 42.888 4.65936 43.2 10.7587 43.2C11.4245 43.2 12.1061 43.1962 12.8026 43.1962H25.9867C26.6822 43.1962 27.3638 43.2 28.0296 43.2C34.1299 43.2 38.7912 42.888 38.7912 36.5107C38.7907 31.4674 35.8752 27.108 31.6387 25.0205Z" fill="white"/>
<path d="M19.3992 25.4362C25.2955 25.4362 30.0749 16.5701 30.0749 10.6742C30.0749 4.77936 25.2955 0 19.3992 0C13.5038 0 8.72449 4.77936 8.72449 10.6742C8.72449 16.5701 13.5038 25.4362 19.3992 25.4362Z" fill="white"/>
<path d="M31.6454 32.951C32.4407 32.951 33.0854 32.3063 33.0854 31.511C33.0854 30.7158 32.4407 30.071 31.6454 30.071C30.8502 30.071 30.2054 30.7158 30.2054 31.511C30.2054 32.3063 30.8502 32.951 31.6454 32.951Z" fill="white"/>
</svg>
