<svg width="478" height="478" viewBox="0 0 478 478" fill="none" xmlns="http://www.w3.org/2000/svg">
<g opacity="0.2">
<path d="M441.685 236.953C441.685 249.643 440.752 265.181 437.195 295.563C434.384 319.642 429.761 353.385 429.593 354.54L255.948 353.862L248.936 353.83L51.2424 354.54C37.7704 285.377 34.6675 256.056 34.6675 236.953C34.6675 215.52 37.9777 194.869 44.1274 175.471C44.8692 173.118 45.6589 170.773 46.4884 168.46C61.7883 125.661 91.2582 88.9628 129.778 64.7113C161.165 44.914 198.342 33.46 238.192 33.46C241.798 33.46 245.379 33.5556 248.936 33.7391C251.282 33.8589 253.619 34.0263 255.948 34.2257C324.055 40.1074 383.332 79.6968 415.746 137.456V137.464C432.873 168.056 441.685 202.008 441.685 236.953Z" fill="#9A9AE2"/>
</g>
<g opacity="0.4">
<path d="M44.2554 317.07C46.1975 328.082 48.5047 340.483 51.2425 354.538L248.937 353.829L255.948 353.861L429.593 354.538C429.81 353.045 432.586 332.579 434.56 317.07H44.2554Z" fill="#9A9AE2"/>
</g>
<g opacity="0.8">
<path d="M432.226 175.469H379.782V317.07H372.77V175.469H255.949V317.07H248.937V175.469H129.778V317.07H122.767V175.469H44.1284C44.8702 173.117 45.6598 170.772 46.4894 168.458H122.767V69.336C125.072 67.7407 127.409 66.2016 129.778 64.7098V168.458H248.937V33.7376C251.282 33.8572 253.619 34.0247 255.948 34.224V168.458H372.77V84.3076C375.155 86.4135 377.5 88.575 379.781 90.8005V168.458H429.865C430.695 170.779 431.484 173.108 432.226 175.469Z" fill="white"/>
</g>
<g opacity="0.2">
<path d="M425.187 381.567C425.078 381.599 424.961 381.623 424.851 381.647C425.187 381.766 425.516 381.925 425.828 382.123C432.956 384.369 437.536 387.846 437.536 391.759C437.536 398.53 423.851 404.015 406.969 404.015C405.789 404.015 404.625 403.991 403.476 403.936C406.117 405.325 407.634 407.008 407.634 408.842C407.634 412.16 402.686 415.271 395.097 417.287C390.158 418.621 384.108 419.478 377.544 419.677C361.889 420.145 349.032 416.589 347.578 411.588C346.532 407.824 351.844 405.032 355.503 403.626C355.886 403.484 356.277 403.333 356.684 403.206C341.284 400.504 324.386 400.567 307.078 404.15C308.625 405.722 309.446 407.389 309.446 409.159C309.446 414.812 301.232 418.892 295.933 420.923C283.271 425.825 261.882 428.866 240.706 426.817C236.04 426.366 231.449 427.898 227.766 430.798C226.111 432.102 224 433.34 221.505 434.488C212.259 438.751 197.698 442.239 181.309 442.252C96.5788 442.319 81.3862 423.249 72.7968 418.319C69.3737 416.359 64.1137 411.731 67.959 406.539C70.624 402.952 75.7824 403.182 77.4315 398.205C78.5727 394.744 77.3612 389.402 75.3682 386.092C71.7495 387.1 67.7323 387.655 63.4963 387.655C47.7243 387.655 34.9458 379.972 34.9458 370.51C34.9458 362.461 36.3958 355.706 48.8616 353.864C64.6884 353.864 411.196 353.864 427.04 353.864C427.915 354.095 428.775 354.348 429.595 354.61C437.872 357.293 443.335 362.628 443.335 367.867C443.335 373.59 436.809 378.559 427.204 381.075C426.54 381.321 425.867 381.488 425.187 381.567Z" fill="#9A9AE2"/>
</g>
<path d="M271.003 91.7654V372.017C271.003 385.096 260.4 395.699 247.321 395.699H112.25C99.1712 395.699 88.5684 385.096 88.5684 372.017V91.7654C88.5684 78.6861 99.1713 68.0833 112.25 68.0833H247.321C260.4 68.0833 271.003 78.6862 271.003 91.7654Z" fill="#7366DA"/>
<path d="M285.779 91.7654V372.017C285.779 385.096 275.176 395.699 262.097 395.699H127.026C113.947 395.699 103.344 385.096 103.344 372.017V91.7654C103.344 78.6861 113.947 68.0833 127.026 68.0833H262.097C275.176 68.0833 285.779 78.6862 285.779 91.7654Z" fill="#9A9AE2"/>
<path d="M127.026 387.723C118.352 387.723 111.32 380.691 111.32 372.017V91.7654C111.32 83.0912 118.352 76.0593 127.026 76.0593H262.097C270.771 76.0593 277.803 83.0912 277.803 91.7654V372.017C277.803 380.691 270.771 387.722 262.097 387.722L127.026 387.723Z" fill="white"/>
<path d="M214.922 90.1226C214.922 93.6486 212.068 96.542 208.502 96.542H180.635C177.082 96.542 174.205 93.6762 174.205 90.1226C174.205 86.6033 177.063 83.7031 180.635 83.7031H208.502C212.045 83.7031 214.922 86.5804 214.922 90.1226Z" fill="#9A9AE2"/>
<path d="M329.193 120.445V357.414C329.193 364.306 323.601 369.889 316.71 369.889H148.664C141.772 369.889 136.181 364.306 136.181 357.414V120.445C136.181 113.553 141.772 107.962 148.664 107.962H316.71C317.188 107.962 317.659 107.985 318.121 108.041C324.351 108.743 329.193 114.032 329.193 120.445Z" fill="#6DB0F4"/>
<path d="M318.121 108.041V335.112C318.121 346.87 308.59 356.401 296.832 356.401C126.594 356.376 137.42 356.471 136.181 356.321V120.445C136.181 113.553 141.772 107.962 148.664 107.962H316.71C317.188 107.962 317.659 107.985 318.121 108.041Z" fill="#9DD3F5"/>
<path d="M185.608 90.1178C185.608 92.036 184.056 93.5978 182.128 93.5978C180.21 93.5978 178.658 92.036 178.658 90.1178C178.658 88.1996 180.21 86.6478 182.128 86.6478C184.056 86.6477 185.608 88.1996 185.608 90.1178Z" fill="white"/>
<path d="M207.514 226.709V274.371C207.514 278.311 204.321 281.504 200.382 281.504H161.17C157.23 281.504 154.029 278.311 154.029 274.371V226.709C154.029 222.769 157.23 219.568 161.17 219.568H200.382C204.321 219.568 207.514 222.769 207.514 226.709Z" fill="#EDF1F5"/>
<path d="M213.112 140.587C213.038 189.061 213.291 186.76 212.913 188.431C212.126 191.858 209.061 194.408 205.399 194.408H162.981C158.713 194.408 155.25 190.954 155.25 186.686V140.587C155.25 136.319 158.713 132.856 162.981 132.856H205.399C209.658 132.856 213.112 136.319 213.112 140.587Z" fill="#EDF1F5"/>
<path d="M211.48 218.699V234.818C211.48 236.561 210.069 237.972 208.327 237.972H191.552C189.815 237.972 188.398 236.561 188.398 234.818V218.699C188.398 216.957 189.815 215.546 191.552 215.546H208.327C210.069 215.546 211.48 216.957 211.48 218.699Z" fill="#EF4441"/>
<path d="M201.463 256.198H160.081C159.613 256.198 159.233 255.818 159.233 255.351C159.233 254.883 159.613 254.504 160.081 254.504H201.463C201.93 254.504 202.31 254.883 202.31 255.351C202.31 255.818 201.93 256.198 201.463 256.198Z" fill="#BFC9D1"/>
<path d="M201.462 264.839H160.08C159.612 264.839 159.233 264.459 159.233 263.992C159.233 263.524 159.612 263.144 160.08 263.144H201.462C201.93 263.144 202.31 263.524 202.31 263.992C202.31 264.459 201.93 264.839 201.462 264.839Z" fill="#BFC9D1"/>
<path d="M184.713 273.479H160.08C159.612 273.479 159.233 273.1 159.233 272.632C159.233 272.164 159.612 271.785 160.08 271.785H184.713C185.181 271.785 185.56 272.164 185.56 272.632C185.56 273.1 185.181 273.479 184.713 273.479Z" fill="#BFC9D1"/>
<path d="M201.462 247.557H160.08C159.612 247.557 159.233 247.178 159.233 246.71C159.233 246.243 159.612 245.863 160.08 245.863H201.462C201.93 245.863 202.31 246.242 202.31 246.71C202.31 247.178 201.93 247.557 201.462 247.557Z" fill="#BFC9D1"/>
<path d="M206.339 226.976L199.935 233.379L193.531 226.976C191.968 225.412 191.968 222.876 193.531 221.312C195.464 219.381 198.713 219.917 199.935 222.332C201.159 219.913 204.41 219.384 206.339 221.312C207.902 222.876 207.902 225.412 206.339 226.976Z" fill="white"/>
<path d="M183.045 312.712C183.045 319.581 177.469 325.157 170.6 325.157C163.737 325.157 158.146 319.59 158.146 312.712C158.146 305.843 163.723 300.266 170.6 300.266C173.146 300.266 175.514 301.03 177.492 302.346C180.833 304.581 183.045 308.389 183.045 312.712Z" fill="#232B41"/>
<path d="M179.54 309.191C179.54 316.068 173.964 321.637 167.095 321.637C164.548 321.637 162.173 320.866 160.195 319.55C158.902 317.587 158.146 315.235 158.146 312.712C158.146 305.843 163.723 300.266 170.6 300.266C173.146 300.266 175.514 301.03 177.492 302.346C178.785 304.308 179.54 306.668 179.54 309.191Z" fill="#232B41"/>
<path d="M167.468 317.891L163.37 313.793C162.884 313.307 162.884 312.519 163.37 312.033C163.856 311.548 164.644 311.548 165.13 312.033L168.348 315.251L176.064 307.534C176.55 307.049 177.338 307.049 177.825 307.534C178.31 308.02 178.31 308.808 177.825 309.294L169.228 317.891C168.741 318.377 167.954 318.376 167.468 317.891Z" fill="white"/>
<path d="M237.367 307.241H196.178C195.203 307.241 194.412 306.45 194.412 305.475C194.412 304.5 195.203 303.708 196.178 303.708H237.367C238.342 303.708 239.133 304.5 239.133 305.475C239.133 306.45 238.342 307.241 237.367 307.241Z" fill="white"/>
<path d="M260.935 307.241H247.32C246.344 307.241 245.553 306.45 245.553 305.475C245.553 304.5 246.344 303.708 247.32 303.708H260.935C261.91 303.708 262.701 304.5 262.701 305.475C262.701 306.45 261.91 307.241 260.935 307.241Z" fill="white"/>
<path d="M305.288 307.241H271.231C270.255 307.241 269.464 306.45 269.464 305.475C269.464 304.5 270.255 303.708 271.231 303.708H305.288C306.263 303.708 307.054 304.5 307.054 305.475C307.054 306.45 306.263 307.241 305.288 307.241Z" fill="white"/>
<path d="M256.396 189.151H228.454C227.478 189.151 226.687 188.36 226.687 187.384C226.687 186.409 227.478 185.618 228.454 185.618H256.396C257.372 185.618 258.163 186.409 258.163 187.384C258.163 188.36 257.372 189.151 256.396 189.151Z" fill="white"/>
<path d="M304.818 189.151H267.366C266.39 189.151 265.599 188.36 265.599 187.384C265.599 186.409 266.39 185.618 267.366 185.618H304.818C305.794 185.618 306.585 186.409 306.585 187.384C306.585 188.36 305.794 189.151 304.818 189.151Z" fill="white"/>
<path d="M272.848 173.316H228.454C227.478 173.316 226.687 172.525 226.687 171.55C226.687 170.574 227.478 169.783 228.454 169.783H272.848C273.823 169.783 274.614 170.574 274.614 171.55C274.614 172.525 273.823 173.316 272.848 173.316Z" fill="white"/>
<path d="M304.817 173.316H281.621C280.646 173.316 279.855 172.525 279.855 171.55C279.855 170.574 280.646 169.783 281.621 169.783H304.817C305.792 169.783 306.583 170.574 306.583 171.55C306.583 172.525 305.792 173.316 304.817 173.316Z" fill="white"/>
<path d="M266.666 157.482H228.454C227.478 157.482 226.687 156.691 226.687 155.715C226.687 154.74 227.478 153.949 228.454 153.949H266.666C267.641 153.949 268.433 154.74 268.433 155.715C268.433 156.69 267.641 157.482 266.666 157.482Z" fill="white"/>
<path d="M266.666 141.647H228.454C227.478 141.647 226.687 140.856 226.687 139.88C226.687 138.905 227.478 138.114 228.454 138.114H266.666C267.641 138.114 268.433 138.905 268.433 139.88C268.433 140.856 267.641 141.647 266.666 141.647Z" fill="white"/>
<path d="M218.499 321.924H196.178C195.203 321.924 194.412 321.133 194.412 320.157C194.412 319.182 195.203 318.391 196.178 318.391H218.499C219.475 318.391 220.266 319.182 220.266 320.157C220.266 321.133 219.475 321.924 218.499 321.924Z" fill="white"/>
<path d="M281.403 321.924H228.383C227.408 321.924 226.617 321.133 226.617 320.157C226.617 319.182 227.408 318.391 228.383 318.391H281.403C282.378 318.391 283.169 319.182 283.169 320.157C283.169 321.133 282.378 321.924 281.403 321.924Z" fill="white"/>
<path d="M169.195 363.394V410.627C169.195 413.79 166.641 416.345 163.477 416.345H59.8628C56.6608 416.345 54.1064 413.79 54.1064 410.627V363.394H169.195Z" fill="#DF2715"/>
<path d="M157.416 390.041V416.345H59.8628C56.6608 416.345 54.1064 413.79 54.1064 410.627V372.314H139.689C149.486 372.314 157.416 380.244 157.416 390.041Z" fill="#EF4441"/>
<path d="M173.504 359.086C173.504 361.488 171.597 363.394 169.196 363.394H54.1072C52.125 363.394 50.4477 362.06 49.9521 360.23C50.6817 360.349 128.652 360.294 165.803 360.307C168.167 360.307 170.111 358.401 170.111 356.037C170.111 355.655 170.073 355.236 169.958 354.893C171.979 355.236 173.504 356.99 173.504 359.086Z" fill="#FBBA24"/>
<path d="M170.107 356.037C170.107 358.401 168.163 360.307 165.8 360.307C128.648 360.294 50.6781 360.349 49.9486 360.231C49.834 359.887 49.7959 359.467 49.7959 359.087C49.7959 356.723 51.7401 354.817 54.1036 354.817C90.3726 354.829 169.243 354.774 169.955 354.893C170.069 355.236 170.107 355.655 170.107 356.037Z" fill="#FCCF36"/>
<path d="M169.195 351.195V354.816H54.1064V351.157C54.1446 345.324 58.8335 340.673 64.628 340.673H158.674C164.506 340.674 169.195 345.362 169.195 351.195Z" fill="#DF2715"/>
<path d="M160.923 347.536C160.923 349.556 159.284 351.157 157.301 351.157H54.1064C54.1446 345.324 58.8335 340.673 64.628 340.673H158.369C159.97 342.503 160.923 344.905 160.923 347.536Z" fill="#EF4441"/>
<path d="M138.394 340.674H132.18L129.854 334.879C129.625 334.27 128.939 333.85 128.215 333.85H95.0875C94.3632 333.85 93.677 334.27 93.4484 334.879L91.123 340.674H84.9092L87.9207 332.249C88.2257 331.334 89.1025 330.724 90.0937 330.724H133.209C134.2 330.724 135.077 331.334 135.382 332.249L138.394 340.674Z" fill="#27254C"/>
<path d="M128.085 392.282C128.085 401.364 120.738 408.739 111.656 408.739C102.573 408.739 95.2183 401.371 95.2183 392.282C95.2183 383.228 102.565 375.844 111.656 375.844C120.727 375.844 128.085 383.233 128.085 392.282Z" fill="#BFC9D1"/>
<path d="M123.95 388.59C123.95 397.682 116.604 405.056 107.512 405.056C104.31 405.056 101.328 404.143 98.8086 402.555C96.5658 399.74 95.2183 396.168 95.2183 392.282C95.2183 383.228 102.565 375.844 111.656 375.844C114.859 375.844 117.84 376.758 120.36 378.355C122.612 381.161 123.95 384.723 123.95 388.59Z" fill="#EDF1F5"/>
<path d="M111.65 400.804C110.985 400.804 110.446 400.265 110.446 399.6V384.991C110.446 384.326 110.985 383.787 111.65 383.787C112.315 383.787 112.855 384.326 112.855 384.991V399.6C112.855 400.265 112.315 400.804 111.65 400.804Z" fill="#27254C"/>
<path d="M104.308 396.586C103.972 396.012 104.165 395.274 104.74 394.939L117.35 387.57C117.924 387.234 118.663 387.427 118.998 388.002C119.333 388.576 119.14 389.314 118.566 389.649L105.955 397.018C105.381 397.354 104.643 397.161 104.308 396.586Z" fill="#27254C"/>
<path d="M117.35 397.018L104.74 389.649C104.165 389.314 103.972 388.576 104.308 388.002C104.643 387.428 105.381 387.234 105.955 387.57L118.566 394.939C119.14 395.274 119.333 396.012 118.998 396.586C118.664 397.158 117.928 397.356 117.35 397.018Z" fill="#27254C"/>
<path d="M438.328 430.965C417.865 432.371 424.922 431.886 423.396 431.991L422.7 421.827L422.314 417.362L437.246 416.346L438.328 430.965Z" fill="#FCA987"/>
<g opacity="0.4">
<path d="M438.328 430.965C438.288 431 438.25 431.016 438.211 431.042C437.013 431.709 435.416 431.549 434.139 431.138C430.988 430.213 432.592 428.266 432.605 426.655C432.614 425.518 431.852 424.488 430.895 423.866C429.929 423.243 428.8 422.964 427.688 422.704C426.045 422.308 424.374 421.909 422.7 421.827L422.314 417.362L437.246 416.346L438.328 430.965Z" fill="#D37652"/>
</g>
<path d="M440.869 434.539L441.035 436.99C441.07 437.493 440.811 437.968 440.368 438.209C439.063 438.92 436.043 440.312 431.749 440.741C425.896 441.327 425.563 443.283 416.209 444.231C407.167 445.148 403.413 443.762 402.919 443.515C402.424 443.268 402.742 440.027 402.742 440.027L440.869 434.539Z" fill="#27254C"/>
<path d="M440.867 434.538C440.867 434.538 437.563 437.281 433.269 437.083C429.264 436.824 423.143 440.401 418.965 441.005C414.66 441.624 404.506 442.97 402.918 440.905C401.329 438.839 408.996 435.698 410.92 435.821C411.07 435.829 411.229 435.796 411.396 435.725C413.381 434.871 416.527 428.641 419.064 426.616C421.814 424.415 426.812 423.959 427.558 427.721C431.524 429.535 435.124 429.702 437.986 426.566C438.027 426.646 441.464 430.035 440.867 434.538Z" fill="#DF2715"/>
<path d="M440.869 434.538C440.869 434.538 437.564 437.281 433.27 437.083C433.214 437.08 433.154 437.076 433.094 437.08C430.529 431.324 440.107 429.771 440.107 429.771C440.69 431.089 441.109 432.729 440.869 434.538Z" fill="#B72214"/>
<path d="M427.556 427.721C427.556 427.721 419.921 437.146 414.925 436.966C413.409 436.912 412.242 436.423 411.394 435.725C413.379 434.871 416.525 428.641 419.062 426.616C421.812 424.415 426.81 423.959 427.556 427.721Z" fill="#B72214"/>
<path d="M391.757 431.679C371.266 430.753 378.333 431.072 376.804 431.003L377.267 420.826L377.39 416.347L392.341 417.032L391.757 431.679Z" fill="#FCA987"/>
<g opacity="0.4">
<path d="M391.756 431.679C391.713 431.709 391.673 431.721 391.631 431.742C390.365 432.269 388.796 431.928 387.574 431.375C384.549 430.099 386.363 428.346 386.559 426.747C386.697 425.618 386.057 424.509 385.176 423.782C384.287 423.053 383.197 422.648 382.123 422.264C380.535 421.683 378.92 421.097 377.267 420.826L377.39 416.347L392.341 417.032L391.756 431.679Z" fill="#D37652"/>
</g>
<path d="M393.876 435.518L393.763 437.972C393.74 438.476 393.429 438.918 392.962 439.108C391.585 439.666 388.426 440.706 384.111 440.645C378.229 440.563 377.676 442.468 368.276 442.349C359.188 442.233 355.616 440.43 355.152 440.128C354.689 439.827 355.373 436.643 355.373 436.643L393.876 435.518Z" fill="#27254C"/>
<path d="M393.873 435.517C393.873 435.517 390.279 437.868 386.035 437.184C382.085 436.472 375.597 439.331 371.379 439.457C367.03 439.583 356.79 439.768 355.446 437.535C354.102 435.303 362.076 433.052 363.973 433.393C365.882 433.72 370.144 427.03 373.11 425.171C376.092 423.297 381.11 423.411 381.424 427.234C385.158 429.486 388.716 430.06 391.916 427.27C391.945 427.35 394.978 431.109 393.873 435.517Z" fill="#DF2715"/>
<path d="M393.877 435.517C393.877 435.517 390.283 437.867 386.039 437.183C385.983 437.173 385.924 437.163 385.864 437.16C383.969 431.15 393.661 430.694 393.661 430.694C394.091 432.07 394.321 433.747 393.877 435.517Z" fill="#B72214"/>
<path d="M381.426 427.233C381.426 427.233 372.77 435.731 367.826 434.985C366.327 434.76 365.223 434.141 364.459 433.351C366.528 432.728 370.361 426.895 373.112 425.171C376.094 423.297 381.112 423.411 381.426 427.233Z" fill="#B72214"/>
<path d="M334.291 214.428L332.007 219.714L326.74 221.259C328.411 216.282 330.952 214.249 333.304 212.91L334.291 214.428Z" fill="#27254C"/>
<path d="M313.01 202.226L313.092 202.309L317.471 205.643L318.424 206.521C318.424 206.521 316.077 206.685 316.793 208.63C316.793 208.63 314.906 209.369 316.139 210.894C313.508 213.191 319.877 217.202 325.384 217.487C325.474 217.589 328.399 220.902 328.215 220.693C328.465 220.563 328.904 220.649 329.151 220.496C329.697 220.167 330.159 219.705 330.639 219.298C332.666 217.536 332.989 215.447 333.038 214.334C328.252 207.893 320.06 202.048 312.861 199.648C311.877 199.62 312.075 201.362 313.01 202.226Z" fill="#FCA987"/>
<path d="M320.336 209.142C319.545 208.441 318.31 206.716 318.258 206.643C318.192 206.55 318.213 206.421 318.306 206.355C318.399 206.289 318.528 206.31 318.594 206.403C318.607 206.421 319.854 208.163 320.61 208.833C320.695 208.909 320.703 209.04 320.627 209.125C320.552 209.211 320.421 209.218 320.336 209.142Z" fill="#B55C38"/>
<path d="M315.99 210.853C315.908 210.775 315.905 210.644 315.984 210.561C316.063 210.479 316.195 210.477 316.277 210.555C317.59 211.815 319.185 213.06 319.611 212.982C319.841 212.934 319.986 212.834 320.053 212.677C320.238 212.245 319.851 211.466 319.687 211.202C319.626 211.105 319.656 210.978 319.753 210.917C319.849 210.857 319.976 210.886 320.037 210.983C320.635 211.944 320.821 213.152 319.695 213.386C318.882 213.553 316.583 211.422 315.99 210.853Z" fill="#B55C38"/>
<path d="M317.103 214.737C317.015 214.664 317.003 214.534 317.076 214.446C317.148 214.357 317.279 214.346 317.367 214.418C318.055 214.988 318.285 214.977 318.324 214.968C318.526 214.926 318.66 214.831 318.732 214.677C318.971 214.167 318.54 213.147 318.353 212.797C318.299 212.696 318.338 212.571 318.438 212.517C318.538 212.464 318.663 212.501 318.717 212.603C319.279 213.658 319.584 215.129 318.408 215.373C318.005 215.457 317.423 215.002 317.103 214.737Z" fill="#B55C38"/>
<path d="M316.596 208.749C316.514 208.67 316.511 208.539 316.59 208.457C316.669 208.375 316.8 208.372 316.882 208.451C318.196 209.711 319.791 210.954 320.217 210.878C320.447 210.83 320.591 210.73 320.659 210.573C320.844 210.141 320.457 209.361 320.293 209.097C320.149 208.865 320.497 208.647 320.643 208.879C321.241 209.84 321.427 211.048 320.301 211.282C319.488 211.449 317.189 209.318 316.596 208.749Z" fill="#B55C38"/>
<path d="M439.747 419.227C439.747 421.271 419.627 421.266 419.627 419.227L407.076 325.019C406.921 326.329 408.609 312.098 395.9 419.227C395.9 422.255 374.553 421.788 374.553 418.76C374.584 417.68 378.394 286.466 378.627 278.44H434.436L439.747 419.227Z" fill="#27254C"/>
<path d="M439.744 419.228C439.744 421.208 420.801 421.269 419.685 419.4C424.365 417.082 427.583 412.29 429.07 407.247C430.679 401.789 430.575 401.13 430.368 395.447C429.702 376.694 425.247 357.984 425.835 339.232C426.138 329.31 426.449 319.32 424.918 309.511C424.607 307.547 424.157 305.463 422.721 304.087C421.312 302.729 419.184 302.348 417.229 302.582C415.283 302.816 413.449 303.577 411.598 304.234C403.908 306.95 395.587 307.867 387.482 306.907C383.791 306.469 379.947 305.51 377.872 302.435L378.625 278.441H434.433L439.744 419.228Z" fill="#18142E"/>
<path d="M378.232 280.586C393.87 283.074 410.631 282.776 421.795 279.829L378.232 280.586Z" fill="white"/>
<path d="M399.499 282.559C392.584 282.559 385.281 282 378.187 280.872C378.029 280.847 377.921 280.699 377.946 280.541C377.972 280.383 378.125 280.279 378.278 280.301C393.905 282.786 410.551 282.498 421.722 279.55C421.876 279.509 422.034 279.601 422.075 279.755C422.116 279.91 422.024 280.068 421.869 280.109C415.706 281.736 407.889 282.559 399.499 282.559Z" fill="#3C4150"/>
<path d="M435.944 286.744C436.161 295.938 377.696 297.314 377.472 288.11C377.523 287.237 378.311 253.71 378.89 238.252C374.063 242.82 368.311 247.318 363.9 247.966C359.912 248.546 353.468 244.697 347.05 239.74C346.662 239.611 338.747 233.236 330.079 224.646C327.994 222.588 326.731 221.256 326.731 221.256C330.537 220.036 333.262 217.389 333.305 212.909C370.301 232.788 357.541 225.931 360.302 227.415C361.054 227.622 361.876 227.371 362.386 226.766L382.039 203.601V203.619C384.028 201.05 389.659 199.216 396.51 198.273C402.227 197.486 408.801 197.313 414.83 197.84C423.117 198.558 430.383 200.591 433.012 204.155C435.46 207.814 436.481 211.957 436.221 216.533C437.296 233.877 436.12 263.175 435.944 286.744Z" fill="#FBC52D"/>
<path d="M435.947 279.079V286.743C436.163 295.938 377.698 297.313 377.474 288.11C377.476 288.029 377.695 279.883 377.681 280.403C377.904 289.574 435.947 288.248 435.947 279.079Z" fill="#FAB01B"/>
<path d="M415.161 197.871L415.143 198.338L415.074 198.589C413.569 204.35 410.343 208.233 405.213 210.456L404.115 210.932L403.163 210.214C399.47 207.455 396.797 203.07 396.209 198.762L396.14 198.321L396.468 198.278C402.316 197.473 408.855 197.317 414.858 197.845L415.161 197.871Z" fill="#EDF1F5"/>
<path d="M436.573 247.975C436.261 269.355 436.333 264.395 436.322 265.159C402.025 274.916 387.346 268.648 377.987 268.683C384.308 266.614 421.931 254.299 431.582 251.141C432.265 250.466 436.573 247.975 436.573 247.975Z" fill="#FAB01B"/>
<path d="M396.288 415.732L395.899 419.227C395.899 422.254 374.551 421.787 374.551 418.76C374.582 417.68 374.17 432.067 378.011 297.971C381.514 298.914 383.495 300.523 383.737 304.346C384.092 309.856 383.21 315.617 382.976 321.127C382.457 333.479 382.267 345.848 382.405 358.218C382.552 371.971 383.002 385.767 384.083 399.477C384.585 406.648 385.822 409.729 391.929 413.518C393.295 414.365 394.878 414.962 396.288 415.732Z" fill="#18142E"/>
<path d="M423.693 238.546C420.729 239.568 428.395 236.926 378.385 254.159C433.841 226.721 413.459 236.805 418.122 234.498L421.34 216.109L423.693 238.546Z" fill="#FAB01B"/>
<path d="M378.9 224.603V238.253C375.321 241.638 368.804 247.288 363.909 247.966C359.922 248.546 353.478 244.697 347.06 239.741C347.821 240.086 359.092 247.352 364.87 244.74C374.609 240.329 378.9 224.603 378.9 224.603Z" fill="#FAB01B"/>
<path d="M329.244 223.813C327.159 221.755 326.738 221.255 326.738 221.255C330.544 220.036 333.269 217.389 333.312 212.908L336.132 214.422C336.132 214.422 336.139 221.258 329.244 223.813Z" fill="#EDF1F5"/>
<path d="M407.078 325.019L404.83 345.044L405.279 313.662L407.078 325.019Z" fill="#18142E"/>
<path d="M324.959 212.222C321.839 209.794 323.713 207.492 323.713 207.492C323.713 207.492 322.127 206 321.671 205.437C320.797 204.358 320.836 202.696 321.257 202.355C322.772 201.128 330.959 211.762 330.959 211.762" fill="#FCA987"/>
<path d="M324.834 212.386C322.733 210.75 322.574 208.871 323.443 207.52C323.051 207.148 321.9 206.045 321.513 205.568C321.441 205.479 321.455 205.349 321.543 205.277C321.632 205.205 321.762 205.219 321.834 205.307C322.276 205.853 323.841 207.327 323.856 207.342C323.935 207.416 323.943 207.538 323.876 207.622C323.869 207.63 323.255 208.408 323.381 209.494C323.486 210.396 324.06 211.26 325.088 212.059C325.178 212.13 325.194 212.259 325.124 212.349C325.054 212.439 324.925 212.456 324.834 212.386Z" fill="#B55C38"/>
<path d="M375.564 255.065C373.192 255.238 374.095 269.5 376.467 269.328C377.589 267.946 378.157 263.196 378.725 259.389L375.564 255.065Z" fill="#27254C"/>
<path d="M364 242.318L376.305 281.564C376.744 282.964 375.965 284.456 374.565 284.895L346.748 293.617C345.347 294.056 343.856 293.276 343.417 291.876L331.113 252.634C330.674 251.233 331.453 249.742 332.853 249.303L360.674 240.58C362.072 240.141 363.562 240.92 364 242.318Z" fill="#C86150"/>
<path d="M352.734 241.811L353.286 243.574C353.389 243.9 353.207 244.248 352.88 244.35L341.398 247.951C341.07 248.053 340.719 247.87 340.616 247.542L340.066 245.787C339.963 245.458 340.146 245.108 340.474 245.005L351.957 241.405C352.283 241.303 352.631 241.484 352.734 241.811Z" fill="#8D3826"/>
<path d="M378.696 266.252C378.169 266.491 370.592 269.067 366.38 269.402C357.04 270.152 355.971 267.169 358.946 267.448C358.986 267.472 359.058 267.472 359.098 267.488C359.058 267.472 359.01 267.448 358.97 267.44C358.946 267.448 358.946 267.448 358.946 267.448C356.314 266.898 355.652 264.951 357.008 264.8C353.897 264.178 353.802 261.944 355.955 262.279C357.04 262.399 358.787 262.216 360.621 261.865C355.668 261.976 355.062 258.81 357.622 259.2C360.805 259.623 368.902 258.406 368.902 258.406L367.708 254.156C368.123 254.084 368.749 254.135 369.276 254.167C370.967 254.287 376.247 257.007 376.463 257.103C376.463 257.103 376.494 257.095 376.502 257.119C377.595 258.514 378.93 263.212 378.696 266.252Z" fill="#FCA987"/>
<path d="M360.293 262.061C360.025 262.051 360.027 261.645 360.307 261.648C360.32 261.649 361.422 261.686 362.75 261.534C362.863 261.518 362.965 261.602 362.978 261.715C362.992 261.828 362.91 261.931 362.797 261.944C361.955 262.041 361.052 262.081 360.293 262.061Z" fill="#B55C38"/>
<path d="M356.962 264.957C356.848 264.943 356.768 264.84 356.781 264.727C356.795 264.613 356.905 264.53 357.011 264.547C357.031 264.549 358.999 264.778 360.962 264.262C361.232 264.198 361.327 264.593 361.067 264.662C359.982 264.947 358.026 265.086 356.962 264.957Z" fill="#B55C38"/>
<path d="M358.876 267.634C358.609 267.595 358.66 267.19 358.934 267.225C358.948 267.227 360.332 267.414 362.29 266.899C362.56 266.835 362.656 267.231 362.395 267.299C360.939 267.681 359.566 267.731 358.876 267.634Z" fill="#B55C38"/>
<path d="M371.636 258.955L368.866 258.453C368.754 258.433 368.68 258.326 368.7 258.213C368.72 258.1 368.831 258.028 368.94 258.047L371.709 258.549C371.822 258.569 371.896 258.677 371.876 258.789C371.855 258.902 371.747 258.976 371.636 258.955Z" fill="#B55C38"/>
<path d="M428.925 255.923C419.332 259.98 393.192 266.138 381.005 268.214C380.391 268.318 379.794 268.465 379.24 268.621V268.629C378.15 268.924 377.19 269.252 376.464 269.321C378.107 264.391 377.995 258.907 375.564 255.067C437.184 233.924 423.287 238.692 425.379 237.974L431.364 202.545C435.471 206.01 437.431 211.59 438.068 216.947C439.677 230.579 441.338 250.664 428.925 255.923Z" fill="#FBC52D"/>
<path d="M379.24 268.621V268.629C378.15 268.924 377.19 269.252 376.464 269.322C378.107 264.391 377.995 258.907 375.564 255.067L378.635 254.011L378.721 254.046C378.721 254.046 382.129 260.715 379.24 268.621Z" fill="#EDF1F5"/>
<path d="M387.194 231.696L385.884 231.626C385.954 230.321 386.001 228.893 386.05 227.381C386.484 214.031 387.143 193.9 405.897 193.9C406.019 193.9 406.14 193.9 406.263 193.902C411.655 193.976 415.531 195.686 417.783 198.983C422.513 205.907 418.352 217.238 418.173 217.717L416.945 217.257C416.987 217.146 421.047 206.08 416.699 199.72C414.701 196.797 411.184 195.281 406.245 195.213C388.409 194.984 387.806 213.727 387.36 227.423C387.311 228.945 387.264 230.383 387.194 231.696Z" fill="black"/>
<path d="M383.623 232.561C383.522 233.982 384.594 235.217 386.015 235.318C387.445 235.419 388.679 234.347 388.78 232.918C388.881 231.497 387.81 230.262 386.38 230.161C384.959 230.06 383.716 231.131 383.623 232.561Z" fill="white"/>
<path d="M413.153 235.34C412.964 235.168 408.514 231.069 408.229 224.968C407.988 219.818 413.422 217.839 416.329 217.513L416.476 218.815C416.183 218.849 409.295 219.697 409.538 224.907C409.798 230.452 413.991 234.331 414.034 234.369L413.153 235.34Z" fill="black"/>
<path d="M419.57 235.493L418.833 234.409C418.881 234.377 423.573 231.119 424.602 225.665C425.568 220.539 418.865 218.741 418.58 218.667L418.907 217.397C421.74 218.125 426.846 220.841 425.89 225.908C424.758 231.91 419.781 235.35 419.57 235.493Z" fill="black"/>
<path d="M415.448 217.157C415.366 218.33 416.252 219.349 417.424 219.431C418.6 219.513 419.616 218.627 419.698 217.454C419.78 216.282 418.898 215.263 417.722 215.181C416.549 215.099 415.53 215.985 415.448 217.157Z" fill="white"/>
<path d="M417.98 234.8C417.93 235.524 418.476 236.152 419.199 236.203C419.925 236.254 420.551 235.707 420.602 234.984C420.652 234.26 420.108 233.632 419.383 233.581C418.659 233.531 418.031 234.077 417.98 234.8Z" fill="white"/>
<path d="M412.15 234.634C412.1 235.358 412.646 235.986 413.369 236.037C414.094 236.088 414.721 235.541 414.772 234.818C414.822 234.095 414.278 233.466 413.553 233.415C412.829 233.365 412.201 233.911 412.15 234.634Z" fill="white"/>
<path d="M417.356 183.393C417.192 186.377 416.076 188.012 413.965 189.984C413.619 190.304 413.247 190.633 412.841 190.987L413.109 197.743C411.872 202.466 409.251 206.142 404.407 208.244C401.146 205.805 398.759 201.86 398.257 198.158L398.646 195.771C398.396 195.728 398.136 195.676 397.877 195.632C385.68 193.271 394.927 159.822 394.927 159.822L394.823 159.355C423.48 156.57 417.866 173.636 417.356 183.393Z" fill="#FCA987"/>
<path d="M417.649 191.851C414.442 193.027 412.897 190.87 412.897 190.87C412.897 190.87 421.002 181.376 414.773 179.024C412.003 177.974 410.604 182.668 410.575 182.843C410.371 184.213 407.037 184.573 407.834 181.045C408.864 176.487 408.427 171.687 408.427 171.687C372.918 175.924 389.157 152.29 391.975 155.584C394.783 158.888 404.783 155.264 404.783 155.264C417.989 154.088 419.049 164.651 419.049 164.651C428.689 164.369 420.856 190.666 417.649 191.851Z" fill="#27254C"/>
<path d="M192.637 171.142H176.279V182.869H192.637V171.142Z" fill="#F69E7C"/>
<path d="M197.254 159.432C197.254 168.217 191.653 175.336 184.746 175.336C177.833 175.336 172.231 168.217 172.231 159.432C172.231 150.647 177.833 143.528 184.746 143.528C191.653 143.528 197.254 150.647 197.254 159.432Z" fill="#FCA987"/>
<path d="M173.098 159.023C173.098 159.023 174.427 149.316 178.544 147.779C178.544 147.779 185.013 150.21 192.187 148.601C192.187 148.601 196.907 152.087 196.703 154.742C196.5 157.398 196.364 160.03 196.364 160.03L197.597 160.143C197.597 160.143 201.557 152.713 198.852 148.601C198.852 148.601 201.214 147.421 201.567 145.651C201.92 143.881 199.185 143.881 199.185 143.881C199.185 143.881 200.803 141.736 199.685 141.065C198.568 140.395 195.921 140.502 195.921 140.502C195.921 140.502 196.539 137.927 194.51 137.793C192.481 137.659 191.129 138.088 191.129 138.088C191.129 138.088 192.334 136.077 189.923 135.943C187.512 135.809 184.513 137.525 184.513 137.525L184.542 135.782C184.542 135.782 174.104 137.257 173.987 144.874C173.987 144.874 170.546 147.368 170.458 150.532C170.37 153.697 171.752 159.06 171.752 159.06L173.098 159.023Z" fill="#27254C"/>
<path d="M212.908 188.431C212.121 191.858 209.056 194.408 205.394 194.408H162.975C158.707 194.408 155.244 190.953 155.244 186.685V184.895C156.103 183.123 157.713 181.757 159.711 181.233C164.694 179.94 171.177 179.533 171.177 179.533C171.332 178.294 173.593 176.414 174.577 175.636C175.011 175.301 175.617 175.301 176.051 175.636C186.377 183.677 183.922 181.765 184.307 182.065L192.635 175.88C192.76 175.796 192.903 175.645 193.177 175.572C193.512 175.473 193.892 175.518 194.19 175.708C194.253 175.753 194.317 175.798 194.371 175.853C194.38 175.871 194.389 175.88 194.407 175.889C195.473 176.955 196.265 178.717 196.767 180.139L207.971 183.647C210.132 184.705 211.832 186.405 212.908 188.431Z" fill="#C86150"/>
<path d="M199.827 162.403C198.948 164.175 197.36 165.253 196.282 164.806C195.197 164.36 195.034 162.559 195.913 160.786C196.793 159.02 198.381 157.943 199.466 158.389C200.544 158.836 200.707 160.63 199.827 162.403Z" fill="#FCA987"/>
<path d="M173.262 159.333C174.141 161.106 173.978 162.907 172.893 163.354C171.815 163.8 170.227 162.723 169.347 160.95C168.468 159.177 168.631 157.383 169.709 156.937C170.794 156.49 172.382 157.568 173.262 159.333Z" fill="#FCA987"/>
<path d="M196.772 180.141C196.772 180.141 188.199 187.401 184.463 187.401C180.435 187.408 171.175 179.531 171.175 179.531C171.304 178.326 173.622 176.396 174.578 175.638C175.011 175.298 175.621 175.298 176.053 175.638L184.307 182.069L192.808 175.751C193.233 175.433 193.931 175.423 194.404 175.893C195.418 176.9 196.148 178.432 196.772 180.141Z" fill="#FCCF36"/>
<path d="M196.772 180.14C196.772 180.14 188.199 187.401 184.463 187.401C180.435 187.408 171.175 179.531 171.175 179.531C171.217 179.134 171.501 178.644 171.912 178.141C173.403 179.012 174.137 180.415 175.323 181.622C176.897 183.204 179.053 184.132 181.258 184.444C184.805 184.946 189.069 183.851 190.901 182.643C191.61 181.941 192.362 181.452 192.929 180.58C193.829 179.19 194.276 177.538 194.404 175.893C195.418 176.9 196.148 178.432 196.772 180.14Z" fill="#FBC52D"/>
<g opacity="0.2">
<path d="M350.022 387.725C350.022 391.075 337.953 393.795 323.062 393.795C308.178 393.795 296.102 391.075 296.102 387.725C296.102 384.367 308.178 381.647 323.062 381.647C337.953 381.647 350.022 384.367 350.022 387.725Z" fill="#9A9AE2"/>
</g>
<g opacity="0.2">
<path d="M248.484 412.853C248.484 416.203 236.415 418.924 221.524 418.924C206.64 418.924 194.563 416.203 194.563 412.853C194.563 409.495 206.64 406.776 221.524 406.776C236.415 406.776 248.484 409.495 248.484 412.853Z" fill="#9A9AE2"/>
</g>
<g opacity="0.2">
<path d="M182.007 435.034C182.007 438.384 169.939 441.104 155.047 441.104C140.163 441.104 128.087 438.384 128.087 435.034C128.087 431.676 140.163 428.956 155.047 428.956C169.939 428.956 182.007 431.676 182.007 435.034Z" fill="#9A9AE2"/>
</g>
<g opacity="0.2">
<path d="M340.846 430.696C340.846 434.177 328.304 437.004 312.828 437.004C297.359 437.004 284.809 434.177 284.809 430.696C284.809 427.206 297.359 424.379 312.828 424.379C328.304 424.379 340.846 427.206 340.846 430.696Z" fill="#9A9AE2"/>
</g>
<path d="M407.719 78.0902V125.706C407.719 130.077 404.179 133.617 399.815 133.617H352.199C347.828 133.617 344.288 130.077 344.288 125.706V78.0902C344.288 73.7266 347.828 70.1865 352.199 70.1865H399.815C404.179 70.1865 407.719 73.7266 407.719 78.0902Z" fill="#EDF1F5"/>
<path d="M399.811 134.099H352.195C347.568 134.099 343.803 130.334 343.803 125.706V78.0899C343.803 73.4662 347.568 69.7046 352.195 69.7046H399.811C404.435 69.7046 408.197 73.4662 408.197 78.0899V125.706C408.197 130.334 404.435 134.099 399.811 134.099ZM352.196 70.6682C348.099 70.6682 344.766 73.9974 344.766 78.0899V125.706C344.766 129.803 348.099 133.135 352.196 133.135H399.812C403.904 133.135 407.234 129.803 407.234 125.706V78.0899C407.234 73.9974 403.904 70.6682 399.812 70.6682H352.196Z" fill="#8592A2"/>
<path d="M401.297 81.1143V122.678C401.297 125.175 399.271 127.192 396.783 127.192H355.22C352.734 127.192 350.706 125.166 350.706 122.678V81.1143C350.706 78.6264 352.732 76.6093 355.22 76.6093H396.783C399.271 76.6093 401.297 78.6264 401.297 81.1143Z" fill="#DFE5EA"/>
<path d="M393 102.475L376.002 119.471L359.004 102.475C354.855 98.3241 354.855 91.5934 359.004 87.442C364.134 82.3153 372.758 83.7402 376.002 90.1492C379.252 83.7281 387.879 82.3237 393 87.442C397.149 91.5934 397.149 98.3241 393 102.475Z" fill="#DF2715"/>
<path d="M374.003 104.941L370.316 96.5638L368.767 100.331C368.705 100.481 368.558 100.579 368.396 100.579H361.719C361.497 100.579 361.317 100.4 361.317 100.178C361.317 99.9562 361.497 99.7767 361.719 99.7767H368.127L369.932 95.3862C370.051 95.0972 370.508 95.0073 370.671 95.3772L374.268 103.55L376.718 93.8776C376.813 93.5038 377.349 93.4568 377.486 93.8412L380.365 101.918L382.251 96.4562C382.362 96.1344 382.799 96.0878 382.975 96.3809L385.017 99.7924H390.288C390.51 99.7924 390.689 99.972 390.689 100.194C390.689 100.416 390.51 100.595 390.288 100.595H384.79C384.649 100.595 384.518 100.521 384.445 100.4L382.729 97.5327L380.75 103.262C380.62 103.641 380.115 103.606 379.993 103.266L377.172 95.3542L374.76 104.878C374.717 105.044 374.575 105.165 374.404 105.179C374.248 105.196 374.076 105.106 374.003 104.941Z" fill="#EDF1F5"/>
<path d="M305.496 149.296C305.496 157.399 298.94 163.979 290.837 163.979C282.732 163.979 276.17 157.406 276.17 149.296C276.17 141.217 282.726 134.629 290.837 134.629C298.93 134.629 305.496 141.222 305.496 149.296Z" fill="#FAB01B"/>
<path d="M301.806 146.002C301.806 154.114 295.251 160.693 287.14 160.693C284.282 160.693 281.622 159.878 279.374 158.462C277.373 155.95 276.17 152.763 276.17 149.296C276.17 141.217 282.726 134.629 290.837 134.629C293.695 134.629 296.355 135.445 298.603 136.869C300.612 139.373 301.806 142.552 301.806 146.002Z" fill="#FCCF36"/>
<path d="M290.833 157.029C290.168 157.029 289.629 156.49 289.629 155.824V142.79C289.629 142.125 290.168 141.586 290.833 141.586C291.499 141.586 292.038 142.125 292.038 142.79V155.824C292.038 156.49 291.499 157.029 290.833 157.029Z" fill="#27254C"/>
<path d="M285.209 153.798C283.982 153.798 283.544 152.171 284.6 151.554L295.852 144.979C296.425 144.642 297.163 144.837 297.499 145.411C297.834 145.985 297.641 146.723 297.067 147.058L285.815 153.633C285.624 153.745 285.415 153.798 285.209 153.798Z" fill="#27254C"/>
<path d="M295.853 153.633L284.601 147.058C284.027 146.723 283.834 145.985 284.169 145.411C284.504 144.837 285.243 144.642 285.816 144.979L297.068 151.554C297.642 151.889 297.835 152.627 297.5 153.201C297.166 153.772 296.43 153.971 295.853 153.633Z" fill="#27254C"/>
<path d="M299.399 226.709V274.371C299.399 278.311 296.206 281.504 292.266 281.504H253.054C249.115 281.504 245.914 278.311 245.914 274.371V226.709C245.914 222.77 249.115 219.568 253.054 219.568H292.266C296.206 219.568 299.399 222.77 299.399 226.709Z" fill="#EDF1F5"/>
<path d="M303.362 218.699V234.819C303.362 236.561 301.951 237.972 300.209 237.972H283.433C281.697 237.972 280.28 236.561 280.28 234.819V218.699C280.28 216.957 281.697 215.546 283.433 215.546H300.209C301.951 215.546 303.362 216.957 303.362 218.699Z" fill="#27254C"/>
<path d="M293.344 256.198H251.962C251.494 256.198 251.115 255.819 251.115 255.351C251.115 254.883 251.494 254.504 251.962 254.504H293.344C293.812 254.504 294.191 254.883 294.191 255.351C294.191 255.819 293.812 256.198 293.344 256.198Z" fill="#BFC9D1"/>
<path d="M293.344 264.839H251.962C251.494 264.839 251.115 264.459 251.115 263.991C251.115 263.524 251.494 263.144 251.962 263.144H293.344C293.812 263.144 294.191 263.524 294.191 263.991C294.191 264.459 293.812 264.839 293.344 264.839Z" fill="#BFC9D1"/>
<path d="M276.594 273.479H251.962C251.494 273.479 251.115 273.099 251.115 272.632C251.115 272.164 251.494 271.785 251.962 271.785H276.594C277.062 271.785 277.442 272.164 277.442 272.632C277.442 273.1 277.062 273.479 276.594 273.479Z" fill="#BFC9D1"/>
<path d="M293.344 247.557H251.962C251.494 247.557 251.115 247.178 251.115 246.71C251.115 246.243 251.494 245.863 251.962 245.863H293.344C293.812 245.863 294.191 246.242 294.191 246.71C294.191 247.178 293.812 247.557 293.344 247.557Z" fill="#BFC9D1"/>
<path d="M299.078 228.018C298.919 230.432 296.932 233.81 294.216 234.112C291.501 234.414 289.547 231.698 288.273 231.597C286.991 231.497 286.538 235.034 286.538 235.034H284.518C284.518 235.034 284.325 229.527 287.116 229.644C289.9 229.762 292.196 229.242 292.573 227.557C292.9 226.124 292.305 225.101 291.031 223.818C290.553 223.332 290.268 222.637 290.243 221.899L290.151 218.487H291.995V220.893C291.995 220.893 291.953 222.67 292.917 222.402C293.89 222.142 295.13 219.971 297.159 221.379C299.179 222.787 299.229 225.604 299.078 228.018Z" fill="white"/>
</svg>
