<svg width="52" height="52" viewBox="0 0 52 52" fill="none" xmlns="http://www.w3.org/2000/svg">
<rect width="52" height="52" rx="26" fill="#056271"/>
<path d="M38.445 15.8901C38.4142 15.782 38.3473 15.6878 38.2553 15.6232C38.1634 15.5585 38.0521 15.5274 37.94 15.5351C25.8765 15.8881 17.5715 23.7641 16.38 34.1951C16.3758 34.2879 16.3971 34.3801 16.4418 34.4617C16.4864 34.5432 16.5526 34.6109 16.6331 34.6573C16.7136 34.7038 16.8054 34.7272 16.8983 34.725C16.9912 34.7229 17.0817 34.6952 17.16 34.6451L28.36 27.1201C25.8888 30.9109 22.6171 34.1144 18.775 36.5051C17.0653 37.5495 15.2418 38.395 13.34 39.0251C13.2161 39.0685 13.1142 39.1588 13.0562 39.2766C12.9983 39.3945 12.989 39.5303 13.0303 39.655C13.0716 39.7796 13.1603 39.883 13.2771 39.9429C13.394 40.0028 13.5297 40.0143 13.655 39.9751C15.5429 39.3471 17.357 38.5155 19.065 37.4951C23.78 39.9901 28.88 37.9651 29.1 37.8751C43.08 32.0951 38.495 16.0501 38.445 15.8901Z" fill="white"/>
<path d="M16.095 30.5251C17.3188 26.165 19.8746 22.2964 23.405 19.4601C22.8535 16.3456 20.698 12.9111 17.775 12.0251C17.6932 11.9986 17.6059 11.9938 17.5217 12.0114C17.4375 12.0289 17.3594 12.0681 17.295 12.1251C13.843 15.1271 9.77598 23.4996 16.095 30.5251Z" fill="white"/>
</svg>
