<svg width="375" height="220" viewBox="0 0 375 220" fill="none" xmlns="http://www.w3.org/2000/svg">
<path d="M31.7894 155.016C31.7894 157.336 31.2494 159.536 30.1694 161.616C29.1294 163.696 27.4094 165.396 25.0094 166.716C22.6094 167.996 19.4294 168.636 15.4694 168.636C13.3894 168.636 11.6294 168.536 10.1894 168.336C8.78938 168.176 7.50938 167.896 6.34938 167.496C5.18938 167.096 3.90938 166.576 2.50938 165.936V155.616C4.82938 156.776 7.14938 157.676 9.46938 158.316C11.7894 158.916 13.7894 159.216 15.4694 159.216C16.3494 159.216 17.0894 159.076 17.6894 158.796C18.2894 158.516 18.7294 158.136 19.0094 157.656C19.3294 157.176 19.4894 156.636 19.4894 156.036C19.4894 155.276 19.3094 154.636 18.9494 154.116C18.5894 153.596 17.9094 153.056 16.9094 152.496C15.9094 151.936 14.4494 151.256 12.5294 150.456C10.7294 149.696 9.18938 148.916 7.90938 148.116C6.66938 147.316 5.66938 146.416 4.90938 145.416C4.14938 144.416 3.58938 143.256 3.22938 141.936C2.86938 140.576 2.68938 138.976 2.68938 137.136C2.68938 134.376 3.36938 132.076 4.72938 130.236C6.12938 128.356 8.02938 126.956 10.4294 126.036C12.8294 125.076 15.5894 124.596 18.7094 124.596C21.6694 124.596 24.2494 124.916 26.4494 125.556C28.6894 126.156 30.5094 126.856 31.9094 127.656L28.2494 136.596C26.6494 135.756 24.9494 135.096 23.1494 134.616C21.3494 134.096 19.7494 133.836 18.3494 133.836C17.5094 133.836 16.8294 133.956 16.3094 134.196C15.7894 134.436 15.4094 134.776 15.1694 135.216C14.9294 135.616 14.8094 136.076 14.8094 136.596C14.8094 137.276 15.0294 137.876 15.4694 138.396C15.9494 138.916 16.7694 139.496 17.9294 140.136C19.1294 140.736 20.7894 141.556 22.9094 142.596C24.8294 143.476 26.4494 144.456 27.7694 145.536C29.0894 146.616 30.0894 147.916 30.7694 149.436C31.4494 150.916 31.7894 152.776 31.7894 155.016ZM62.1292 168.036L60.6892 159.996H48.5092L46.9492 168.036H33.4492L45.9892 125.016H62.7892L75.5092 168.036H62.1292ZM56.6692 143.376C56.4692 142.416 56.2292 141.336 55.9492 140.136C55.6692 138.936 55.3892 137.696 55.1092 136.416C54.8692 135.096 54.6692 133.856 54.5092 132.696C54.3492 133.856 54.1492 135.076 53.9092 136.356C53.6692 137.636 53.4292 138.876 53.1892 140.076C52.9492 141.276 52.7092 142.356 52.4692 143.316L50.7892 150.516H58.3492L56.6692 143.376ZM97.6595 168.036L89.9195 136.596H89.6795C89.7595 137.396 89.8395 138.476 89.9195 139.836C89.9995 141.196 90.0795 142.676 90.1595 144.276C90.2395 145.836 90.2795 147.356 90.2795 148.836V168.036H79.4795V125.196H97.0595L103.36 151.596H103.54L109.36 125.196H126.94V168.036H115.78V148.656C115.78 147.296 115.8 145.856 115.84 144.336C115.88 142.776 115.92 141.316 115.96 139.956C116.04 138.556 116.12 137.456 116.2 136.656H115.96L108.82 168.036H97.6595Z" fill="#00495F"/>
<path d="M152.147 125.196C156.187 125.196 159.387 125.616 161.747 126.456C164.107 127.256 165.787 128.456 166.787 130.056C167.787 131.616 168.287 133.556 168.287 135.876C168.287 137.756 167.927 139.356 167.207 140.676C166.487 141.956 165.627 142.976 164.627 143.736C163.667 144.496 162.767 145.016 161.927 145.296V145.596C162.887 145.876 163.907 146.356 164.987 147.036C166.067 147.716 166.987 148.736 167.747 150.096C168.547 151.416 168.947 153.216 168.947 155.496C168.947 158.096 168.307 160.336 167.027 162.216C165.787 164.096 163.987 165.536 161.627 166.536C159.307 167.536 156.527 168.036 153.287 168.036H137.267V125.196H152.147ZM151.787 141.636C153.227 141.636 154.247 141.236 154.847 140.436C155.447 139.636 155.747 138.676 155.747 137.556C155.747 136.396 155.407 135.516 154.727 134.916C154.087 134.276 153.087 133.956 151.727 133.956H149.507V141.636H151.787ZM149.507 150.096V159.096H152.327C153.847 159.096 154.907 158.676 155.507 157.836C156.107 156.956 156.407 155.856 156.407 154.536C156.407 153.776 156.267 153.056 155.987 152.376C155.747 151.696 155.327 151.156 154.727 150.756C154.127 150.316 153.267 150.096 152.147 150.096H149.507ZM210.753 168.036H198.393V150.576H187.653V168.036H175.353V125.196H187.653V141.096H198.393V125.196H210.753V168.036Z" fill="#01495E"/>
<path d="M237.664 168.036C237.664 168.036 236.169 162.766 232.279 158.236C231.271 157.061 229.912 155.225 228.449 153.089C229.742 151.189 231.106 149.067 232.389 146.946C232.748 146.353 233.151 145.673 233.572 144.946C237.024 149.459 241.144 154.488 241.281 158.236C241.444 162.725 237.664 168.036 237.664 168.036ZM222.769 144.033C223.293 143.343 223.792 142.67 224.257 142.016C224.504 141.665 224.759 141.307 225.016 140.945C225.926 139.663 226.901 138.29 227.834 136.95C225.349 133.373 223.227 130.119 223.274 129.262C223.274 129.262 219.005 132.332 219.15 135.842C219.209 137.259 220.726 140.442 222.769 144.033ZM233.011 129.262C233.082 130.551 228.248 137.259 224.65 142.337C221.051 147.415 215.168 153.746 215.005 158.236C214.841 162.725 218.622 168.036 218.622 168.036C218.622 168.036 220.116 162.766 224.006 158.236C227.896 153.706 236.99 139.353 237.135 135.842C237.28 132.332 233.011 129.262 233.011 129.262ZM234.811 126.268C233.758 123.299 230.526 122.209 228.464 122.046C228.391 122.033 227.894 122.033 227.821 122.046C225.76 122.209 222.528 123.299 221.474 126.268C220.346 129.452 219.64 132.939 219.64 132.939C219.64 132.939 220.227 131.785 221.334 130.513C222.44 129.24 223.623 127.91 227.507 127.862C227.673 127.871 228.612 127.871 228.779 127.862C232.662 127.91 233.846 129.24 234.952 130.513C236.058 131.785 236.646 132.939 236.646 132.939C236.646 132.939 235.94 129.452 234.811 126.268Z" fill="#4CB492"/>
<path d="M284.16 125.196L271.2 168.036H256.44L243.6 125.196H257.82L262.2 146.916C262.36 147.756 262.56 148.816 262.8 150.096C263.08 151.376 263.32 152.656 263.52 153.936C263.76 155.176 263.88 156.196 263.88 156.996C263.96 156.196 264.08 155.176 264.24 153.936C264.4 152.696 264.58 151.456 264.78 150.216C264.98 148.936 265.16 147.876 265.32 147.036L270 125.196H284.16ZM327.947 168.036H311.747L298.607 137.856H298.367C298.367 137.856 298.387 138.216 298.427 138.936C298.467 139.616 298.527 140.516 298.607 141.636C298.687 142.756 298.747 143.956 298.787 145.236C298.867 146.476 298.907 147.636 298.907 148.716V168.036H288.107V125.196H304.247L317.327 154.956H317.507C317.507 154.956 317.487 154.616 317.447 153.936C317.407 153.256 317.347 152.376 317.267 151.296C317.227 150.216 317.187 149.076 317.147 147.876C317.107 146.676 317.087 145.576 317.087 144.576V125.196H327.947V168.036ZM360.581 168.036L359.141 159.996H346.961L345.401 168.036H331.901L344.441 125.016H361.241L373.961 168.036H360.581ZM355.121 143.376C354.921 142.416 354.681 141.336 354.401 140.136C354.121 138.936 353.841 137.696 353.561 136.416C353.321 135.096 353.121 133.856 352.961 132.696C352.801 133.856 352.601 135.076 352.361 136.356C352.121 137.636 351.881 138.876 351.641 140.076C351.401 141.276 351.161 142.356 350.921 143.316L349.241 150.516H356.801L355.121 143.376Z" fill="#00495F"/>
<path d="M247.155 189.324C246.259 189.324 245.448 189.516 244.723 189.9C243.997 190.284 243.379 190.839 242.867 191.564C242.376 192.289 242.003 193.164 241.747 194.188C241.491 195.212 241.363 196.364 241.363 197.644C241.363 199.372 241.576 200.855 242.003 202.092C242.429 203.308 243.08 204.247 243.955 204.908C244.829 205.569 245.928 205.9 247.251 205.9C248.168 205.9 249.064 205.804 249.939 205.612C250.813 205.399 251.699 205.121 252.595 204.78V208.268C251.72 208.652 250.813 208.929 249.875 209.1C248.957 209.271 247.923 209.356 246.771 209.356C244.531 209.356 242.685 208.876 241.235 207.916C239.784 206.935 238.696 205.569 237.971 203.82C237.267 202.049 236.915 199.98 236.915 197.612C236.915 195.884 237.139 194.305 237.587 192.876C238.035 191.447 238.696 190.209 239.571 189.164C240.445 188.119 241.523 187.308 242.803 186.732C244.083 186.156 245.544 185.868 247.187 185.868C248.275 185.868 249.373 186.007 250.483 186.284C251.613 186.54 252.605 186.903 253.459 187.372L252.019 190.732C251.272 190.369 250.493 190.049 249.683 189.772C248.893 189.473 248.051 189.324 247.155 189.324ZM257.094 209.036V186.188H261.382V205.58H270.182V209.036H257.094ZM281.716 209.036H272.212V206.7L274.836 205.676V189.58L272.212 188.524V186.188H281.716V188.524L279.124 189.58V205.676L281.716 206.7V209.036ZM304.253 209.036H298.845L289.213 191.116H289.085C289.106 191.585 289.127 192.087 289.149 192.62C289.17 193.132 289.191 193.665 289.213 194.22C289.255 194.753 289.287 195.297 289.309 195.852C289.33 196.407 289.341 196.961 289.341 197.516V209.036H285.501V186.188H290.877L300.477 203.98H300.605C300.583 203.553 300.562 203.095 300.541 202.604C300.519 202.092 300.498 201.569 300.477 201.036C300.455 200.503 300.434 199.959 300.413 199.404C300.391 198.849 300.381 198.316 300.381 197.804V186.188H304.253V209.036ZM317.498 209.036H307.993V206.7L310.618 205.676V189.58L307.993 188.524V186.188H317.498V188.524L314.906 189.58V205.676L317.498 206.7V209.036ZM330.53 189.324C329.634 189.324 328.823 189.516 328.098 189.9C327.372 190.284 326.754 190.839 326.242 191.564C325.751 192.289 325.378 193.164 325.122 194.188C324.866 195.212 324.738 196.364 324.738 197.644C324.738 199.372 324.951 200.855 325.378 202.092C325.804 203.308 326.455 204.247 327.33 204.908C328.204 205.569 329.303 205.9 330.626 205.9C331.543 205.9 332.439 205.804 333.314 205.612C334.188 205.399 335.074 205.121 335.97 204.78V208.268C335.095 208.652 334.188 208.929 333.25 209.1C332.332 209.271 331.298 209.356 330.146 209.356C327.906 209.356 326.06 208.876 324.61 207.916C323.159 206.935 322.071 205.569 321.346 203.82C320.642 202.049 320.29 199.98 320.29 197.612C320.29 195.884 320.514 194.305 320.962 192.876C321.41 191.447 322.071 190.209 322.946 189.164C323.82 188.119 324.898 187.308 326.178 186.732C327.458 186.156 328.919 185.868 330.562 185.868C331.65 185.868 332.748 186.007 333.858 186.284C334.988 186.54 335.98 186.903 336.834 187.372L335.394 190.732C334.647 190.369 333.868 190.049 333.058 189.772C332.268 189.473 331.426 189.324 330.53 189.324Z" fill="#01495E"/>
<path fill-rule="evenodd" clip-rule="evenodd" d="M344.151 200.902C344.458 200.943 344.772 200.938 345.085 200.933C345.76 200.927 346.512 200.916 347.195 200.868C348.61 200.778 349.998 200.588 351.496 200.331C355.071 199.709 359.403 198.114 360.42 197.967C354.432 201.475 349.849 201.761 344.25 203.188C345.864 204.442 347.284 205.027 349.266 205.443C361.09 208.077 367.245 201.592 370.539 191.762C368.838 192.636 364.669 192.527 362.225 192.373C352.196 191.28 348.183 189.277 343.174 200.625C343.985 201.01 343.265 200.764 344.151 200.902Z" fill="#4DB492"/>
<path fill-rule="evenodd" clip-rule="evenodd" d="M154.255 66.911C146.989 65.646 139.828 63.88 133.364 61.151C129.432 59.484 124.463 57.016 121 53.583C122.333 78.01 141.958 98.036 163.62 107.036C172.281 110.635 179.583 112.964 187.776 113.099C168.885 105.87 155.286 88.042 154.255 66.911Z" fill="#00485E" stroke="#0F74BD" stroke-width="0.0719775" stroke-miterlimit="2.613"/>
<path fill-rule="evenodd" clip-rule="evenodd" d="M257.655 39.3205C255.223 36.3526 250.192 33.7895 245.624 32.7895C253.155 45.4515 236.697 51.0815 215.77 53.2165C222.598 46.5865 236.53 30.8206 239.827 27.0236C247.025 18.7586 252.291 27.9566 253.957 18.1956C255.291 10.3936 247.791 3.30055 240.593 0.430551C235.431 -0.736449 232.364 0.565557 231.197 5.96156C230.03 11.4616 234.494 17.3625 236.03 18.3935C231.962 18.3625 230.4 15.2636 229.03 13.6596L186.114 50.6486C189.577 52.0186 193.978 53.2845 198.275 54.2476C179.015 54.7166 160.353 53.2166 155.39 52.1486C146.39 50.2166 127.228 44.3525 134.259 33.8205C132.963 33.8575 127.431 36.1545 124.796 38.8205C120.629 43.0505 118.968 49.4146 135.358 56.3836C146.858 61.2476 161.588 63.0136 174.817 64.3106C190.379 65.8466 203.707 64.9455 219.035 62.9455C226.03 62.0445 232.395 60.9145 238.796 59.0445C246.395 56.8465 266.155 49.6485 257.655 39.3205Z" fill="#00485E" stroke="#0F74BD" stroke-width="0.0719775" stroke-miterlimit="2.613"/>
<path fill-rule="evenodd" clip-rule="evenodd" d="M262.588 50.0518C260.556 85.3068 218.499 108.432 183.145 92.7028C182.478 92.3698 182.713 92.5368 182.28 92.1038C184.176 92.2398 187.379 93.2398 189.713 93.6038C192.411 94.0048 195.01 94.2028 197.739 94.2708C203.64 94.4058 209.702 93.6718 215.4 92.4378C223.734 90.6038 240.129 84.5727 246.994 77.5417C243.593 74.1767 229.864 71.6458 225.098 70.1458C212.468 66.1458 207.171 68.2808 195.806 72.6087C179.379 78.1087 163.02 68.5468 159.885 67.8798C163.286 90.5418 174.082 100.672 184.546 106.333C217.103 123.964 252.056 96.6718 261.02 64.4478C262.286 59.8178 262.853 51.6878 262.588 50.0518Z" fill="#4CB492"/>
<path d="M181.938 69.5498L173.666 19.5247L175.783 19.2188L181.938 69.5498Z" fill="#4CB493"/>
<path d="M177.352 16.6968C177.588 18.3278 176.455 19.8418 174.824 20.0768C173.193 20.3118 171.679 19.1808 171.444 17.5498C171.208 15.9168 172.34 14.4038 173.971 14.1688C175.602 13.9328 177.117 15.0648 177.352 16.6968Z" fill="#4CB493"/>
<path fill-rule="evenodd" clip-rule="evenodd" d="M178.028 25.9451C178.287 25.7751 178.573 25.6441 178.858 25.5141C179.469 25.2281 180.152 24.9141 180.789 24.6631C182.105 24.1341 183.439 23.7071 184.902 23.2931C188.395 22.3131 192.992 21.8851 193.973 21.5791C187.058 20.9951 182.799 22.7131 177.132 23.8391C178.048 22.0121 179.077 20.8721 180.686 19.6421C190.219 12.1681 198.568 15.3661 205.778 22.8151C203.867 22.7601 200.152 24.6561 198.013 25.8481C189.435 31.1581 186.678 34.6951 177.266 26.6161C177.832 25.9191 177.288 26.4511 178.028 25.9451Z" fill="#4CB493"/>
<path d="M179.609 32.7763C179.609 32.7763 179.623 32.7873 179.65 32.8113C179.683 32.8413 179.74 32.8903 179.789 32.9403C179.896 33.0453 180.04 33.1993 180.207 33.4123C180.371 33.6263 180.557 33.9043 180.722 34.2643C180.885 34.6223 181.013 35.0953 180.994 35.6223C180.977 36.1483 180.794 36.7083 180.48 37.1493C180.409 37.2653 180.315 37.3573 180.231 37.4633C180.189 37.5143 180.145 37.5653 180.101 37.6163L180.084 37.6333L180.076 37.6443C180.026 37.6983 180.061 37.6613 180.049 37.6733L180.043 37.6783L180.013 37.7053L179.952 37.7623C179.869 37.8373 179.786 37.9133 179.703 37.9913C179.596 38.0753 179.486 38.1603 179.376 38.2473C178.942 38.5653 178.49 38.8103 178.027 39.0233C177.569 39.2373 177.114 39.4183 176.7 39.6263C176.289 39.8343 175.923 40.0743 175.653 40.3893C175.383 40.7043 175.204 41.0953 175.101 41.5113L175.094 41.5313L175.091 41.5403C175.091 41.5463 175.095 41.5053 175.093 41.5273L175.092 41.5323L175.086 41.5743L175.072 41.6593L175.044 41.8293C175.038 41.8853 175.026 41.9413 175.021 41.9953L175.017 42.1433C175.019 42.2423 175.004 42.3383 175.016 42.4383C175.026 42.5413 175.036 42.6403 175.045 42.7383C175.112 43.1323 175.228 43.5003 175.388 43.8223C175.548 44.1433 175.723 44.4293 175.907 44.6633C176.085 44.8993 176.262 45.0923 176.412 45.2443C176.715 45.5493 176.915 45.6963 176.915 45.6963C176.915 45.6963 176.698 45.5753 176.356 45.3073C176.186 45.1733 175.983 44.9983 175.771 44.7783C175.554 44.5623 175.335 44.2903 175.124 43.9713C174.913 43.6493 174.735 43.2673 174.605 42.8353C174.582 42.7233 174.556 42.6113 174.53 42.4993C174.504 42.3863 174.502 42.2603 174.488 42.1353C174.483 42.0743 174.477 42.0113 174.473 41.9473C174.472 41.8893 174.475 41.8333 174.478 41.7773L174.483 41.6053L174.485 41.5183L174.488 41.4763L174.487 41.4693C174.486 41.4863 174.492 41.4413 174.491 41.4443L174.493 41.4333L174.497 41.4103C174.556 40.9163 174.712 40.3863 175.024 39.9213C175.331 39.4523 175.773 39.0853 176.208 38.7933C176.648 38.5023 177.087 38.2623 177.485 38.0143C177.879 37.7713 178.241 37.5033 178.523 37.2363C178.589 37.1723 178.656 37.1083 178.72 37.0433C178.793 36.9563 178.867 36.8723 178.939 36.7863L178.993 36.7233L179.02 36.6903L179.024 36.6893C179.014 36.6993 179.049 36.6583 179.003 36.7093L179.007 36.7033L179.016 36.6903L179.085 36.5803C179.125 36.5083 179.185 36.4413 179.21 36.3713C179.358 36.0933 179.38 35.8463 179.361 35.6363C179.337 35.4223 179.261 35.2253 179.149 35.0503C179.038 34.8783 178.913 34.7273 178.798 34.6133C178.681 34.4993 178.58 34.4153 178.515 34.3683C178.478 34.3393 178.465 34.3343 178.454 34.3253C178.434 34.3103 178.422 34.3033 178.422 34.3033L178.417 34.2993C177.976 33.9973 177.863 33.3923 178.167 32.9523C178.47 32.5103 179.073 32.3983 179.513 32.7023C179.548 32.7253 179.582 32.7503 179.609 32.7763Z" fill="#00495F"/>
<path d="M174.55 34.4402C174.55 34.4402 174.53 34.4652 174.514 34.4812C174.495 34.4982 174.453 34.5512 174.409 34.6092C174.362 34.6682 174.306 34.7442 174.246 34.8332C174.185 34.9252 174.12 35.0292 174.055 35.1422C173.992 35.2592 173.929 35.3842 173.871 35.5182C173.841 35.5872 173.821 35.6542 173.794 35.7252C173.769 35.7952 173.756 35.8642 173.733 35.9382C173.716 36.0082 173.709 36.0792 173.694 36.1542C173.691 36.2262 173.688 36.2962 173.684 36.3692C173.696 36.4362 173.693 36.5102 173.709 36.5782L173.737 36.6822C173.746 36.7162 173.754 36.7522 173.772 36.7842L173.822 36.8842L173.845 36.9372L173.847 36.9402H173.848C173.84 36.9322 173.866 36.9602 173.831 36.9232L173.836 36.9322L173.848 36.9482L173.872 36.9802L173.969 37.1062L174.016 37.1702L174.056 37.2152C174.155 37.3342 174.287 37.4672 174.426 37.5722C174.496 37.6262 174.565 37.6802 174.64 37.7242C174.712 37.7722 174.785 37.8132 174.861 37.8502C175.008 37.9312 175.159 37.9912 175.301 38.0382C175.586 38.1392 175.841 38.1842 176.02 38.2072C176.108 38.2182 176.179 38.2232 176.228 38.2262C176.274 38.2282 176.299 38.2302 176.299 38.2302L176.308 38.2312C176.358 38.2332 176.395 38.2732 176.393 38.3222C176.391 38.3642 176.363 38.3962 176.325 38.4052C176.325 38.4052 176.296 38.4142 176.246 38.4252C176.194 38.4372 176.119 38.4492 176.023 38.4672C175.831 38.4942 175.555 38.5212 175.214 38.5012C175.044 38.4892 174.858 38.4692 174.664 38.4262C174.565 38.4082 174.465 38.3822 174.364 38.3502C174.26 38.3222 174.157 38.2822 174.053 38.2392C173.844 38.1572 173.64 38.0492 173.421 37.8972L173.34 37.8422L173.277 37.7942L173.151 37.6982L173.12 37.6752L173.104 37.6622L173.096 37.6572L173.069 37.6262L172.996 37.5522L172.855 37.4002C172.804 37.3492 172.766 37.2892 172.728 37.2302L172.615 37.0472C172.543 36.9232 172.496 36.7912 172.442 36.6602C172.401 36.5302 172.366 36.3962 172.336 36.2632C172.319 36.1342 172.297 36.0002 172.289 35.8752C172.287 35.7512 172.279 35.6252 172.284 35.5062C172.292 35.3912 172.297 35.2712 172.311 35.1622C172.335 34.9422 172.375 34.7382 172.416 34.5542C172.459 34.3702 172.507 34.2042 172.553 34.0602C172.601 33.9152 172.646 33.7912 172.688 33.6862C172.729 33.5822 172.76 33.5062 172.792 33.4392C172.82 33.3812 172.835 33.3522 172.835 33.3522C173.078 32.8392 173.688 32.6222 174.2 32.8652C174.711 33.1082 174.928 33.7182 174.686 34.2282C174.652 34.3002 174.611 34.3662 174.562 34.4272L174.55 34.4402Z" fill="#00495F"/>
<path d="M180.495 38.3316C180.495 38.3316 180.552 38.3826 180.633 38.4816C180.717 38.5806 180.831 38.7346 180.953 38.9436C181.069 39.1556 181.197 39.4256 181.282 39.7536C181.37 40.0806 181.417 40.4656 181.392 40.8856C181.371 41.3036 181.267 41.7496 181.102 42.1976C180.934 42.6456 180.691 43.0886 180.402 43.5166C180.257 43.7316 180.1 43.9386 179.934 44.1486C179.853 44.2486 179.768 44.3506 179.678 44.4526C179.587 44.5526 179.498 44.6536 179.405 44.7496C179.035 45.1426 178.635 45.5136 178.245 45.8776C177.854 46.2416 177.473 46.6036 177.156 46.9876C176.839 47.3736 176.594 47.7846 176.463 48.2096C176.33 48.6356 176.291 49.0786 176.331 49.4946C176.364 49.8866 176.485 50.2586 176.649 50.5586C176.814 50.8646 177.023 51.1126 177.231 51.3106C177.439 51.5086 177.647 51.6576 177.823 51.7666C178.18 51.9886 178.406 52.0606 178.382 52.0536C178.643 52.1546 178.773 52.4456 178.673 52.7086C178.571 52.9676 178.279 53.0976 178.02 52.9986C177.996 52.9886 177.713 52.8766 177.284 52.5826C177.071 52.4346 176.822 52.2346 176.568 51.9716C176.317 51.7066 176.06 51.3716 175.861 50.9586C175.665 50.5446 175.531 50.0636 175.511 49.5356C175.49 49.0336 175.56 48.4906 175.754 47.9656C175.946 47.4386 176.271 46.9596 176.647 46.5486C177.021 46.1356 177.438 45.7776 177.848 45.4306C178.259 45.0846 178.664 44.7446 179.037 44.3856C179.13 44.2976 179.221 44.2076 179.31 44.1156C179.397 44.0266 179.485 43.9356 179.571 43.8366C179.735 43.6496 179.895 43.4566 180.042 43.2606C180.334 42.8696 180.581 42.4666 180.756 42.0596C180.932 41.6506 181.046 41.2446 181.085 40.8596C181.128 40.4766 181.101 40.1206 181.033 39.8136C180.971 39.5046 180.865 39.2486 180.765 39.0466C180.661 38.8456 180.561 38.6956 180.488 38.5996C180.414 38.5016 180.372 38.4586 180.372 38.4586C180.337 38.4256 180.338 38.3696 180.372 38.3336C180.407 38.2996 180.46 38.2976 180.495 38.3316Z" fill="#00495F"/>
<path d="M179.778 45.2624C179.778 45.2624 180.016 45.4394 180.392 45.7884C180.765 46.1384 181.291 46.6594 181.807 47.3834C182.063 47.7474 182.315 48.1634 182.516 48.6414C182.712 49.1184 182.857 49.6614 182.849 50.2444C182.845 50.8254 182.669 51.4295 182.345 51.9465C182.182 52.2085 181.994 52.4444 181.787 52.6674C181.579 52.8934 181.358 53.0934 181.127 53.2874C180.666 53.6714 180.175 54.0034 179.713 54.3344C179.252 54.6634 178.815 54.9944 178.482 55.3664C178.147 55.7354 177.946 56.1454 177.893 56.5604C177.876 56.6614 177.873 56.7784 177.872 56.8644C177.874 56.9254 177.876 56.9864 177.877 57.0454C177.882 57.0934 177.887 57.1414 177.891 57.1884C177.916 57.3894 177.962 57.5824 178.025 57.7544C178.152 58.1074 178.347 58.3944 178.551 58.6204C178.76 58.8454 178.975 59.0165 179.161 59.1405C179.539 59.3865 179.787 59.4644 179.762 59.4554C180.02 59.5544 180.149 59.8464 180.05 60.1054C179.951 60.3654 179.659 60.4944 179.4 60.3934C179.377 60.3824 179.066 60.2654 178.606 59.9254C178.379 59.7554 178.113 59.5294 177.856 59.2174C177.602 58.9054 177.359 58.5034 177.214 58.0224C177.143 57.7814 177.095 57.5254 177.076 57.2554C177.073 57.1874 177.071 57.1164 177.068 57.0454C177.069 56.9854 177.071 56.9244 177.073 56.8654C177.082 56.7084 177.094 56.5804 177.122 56.4304C177.175 56.1474 177.277 55.8594 177.423 55.5944C177.571 55.3314 177.76 55.0924 177.969 54.8824C178.392 54.4584 178.879 54.1324 179.365 53.8184C179.852 53.5054 180.342 53.2074 180.793 52.8654C181.018 52.6954 181.236 52.5144 181.432 52.3234C181.631 52.1314 181.813 51.9204 181.96 51.7004C182.262 51.2554 182.43 50.7424 182.455 50.2324C182.481 49.7194 182.37 49.2154 182.202 48.7634C182.033 48.3104 181.806 47.9034 181.572 47.5444C181.101 46.8244 180.605 46.2924 180.25 45.9364C180.07 45.7584 179.925 45.6244 179.823 45.5344C179.723 45.4454 179.669 45.3994 179.669 45.3994H179.667C179.63 45.3674 179.627 45.3094 179.657 45.2714C179.687 45.2394 179.74 45.2344 179.778 45.2624Z" fill="#00495F"/>
<path d="M180.42 54.4526C180.42 54.4526 180.64 54.5216 180.997 54.6966C181.352 54.8766 181.859 55.1576 182.355 55.6466C182.601 55.8936 182.84 56.1956 183.019 56.5646C183.201 56.9306 183.307 57.3626 183.307 57.8106C183.313 58.2616 183.214 58.7196 183.05 59.1536C183.002 59.2626 182.957 59.3716 182.91 59.4796C182.883 59.5316 182.864 59.5776 182.833 59.6326C182.801 59.6866 182.768 59.7466 182.733 59.7956C182.601 59.9976 182.448 60.1806 182.29 60.3536C181.971 60.6966 181.625 60.9976 181.294 61.2906C180.961 61.5806 180.638 61.8606 180.354 62.1436C180.071 62.4276 179.829 62.7226 179.694 63.0066C179.628 63.1496 179.591 63.2836 179.582 63.4096C179.583 63.4406 179.577 63.4736 179.581 63.4996C179.583 63.5406 179.583 63.5956 179.587 63.6246C179.594 63.6846 179.604 63.7526 179.618 63.8186C179.734 64.3456 180.086 64.6666 180.349 64.8456C180.617 65.0276 180.801 65.0786 180.774 65.0706C181.029 65.1676 181.157 65.4556 181.059 65.7096C180.961 65.9656 180.674 66.0946 180.419 65.9946C180.393 65.9826 180.145 65.8876 179.782 65.6006C179.603 65.4576 179.395 65.2586 179.208 64.9866C179.023 64.7166 178.863 64.3596 178.808 63.9566C178.795 63.8586 178.789 63.7576 178.786 63.6426C178.784 63.5836 178.789 63.5506 178.789 63.5016C178.79 63.4406 178.798 63.3816 178.804 63.3236C178.835 63.0886 178.918 62.8636 179.028 62.6626C179.25 62.2626 179.561 61.9436 179.885 61.6516C180.212 61.3586 180.56 61.0896 180.909 60.8226C181.254 60.5506 181.603 60.2806 181.911 59.9836C182.224 59.6886 182.475 59.3666 182.626 58.9816C182.796 58.5976 182.901 58.1956 182.914 57.8056C182.931 57.4146 182.859 57.0366 182.714 56.7046C182.572 56.3716 182.369 56.0836 182.149 55.8446C181.711 55.3666 181.236 55.0686 180.902 54.8806C180.734 54.7886 180.598 54.7236 180.505 54.6816C180.409 54.6376 180.361 54.6186 180.361 54.6186C180.314 54.6016 180.292 54.5496 180.309 54.5046C180.327 54.4606 180.375 54.4356 180.42 54.4526Z" fill="#00495F"/>
<path fill-rule="evenodd" clip-rule="evenodd" d="M173.148 26.7221C172.841 26.6791 172.527 26.6831 172.214 26.6881C171.539 26.6911 170.788 26.7001 170.104 26.7461C168.688 26.8311 167.301 27.0171 165.801 27.2691C162.224 27.8791 157.887 29.4601 156.869 29.6051C162.869 26.1151 167.453 25.8441 173.057 24.4351C171.446 23.1761 170.028 22.5871 168.047 22.1641C156.232 19.4921 150.057 25.9571 146.731 35.7761C148.434 34.9091 152.603 35.0311 155.047 35.1921C165.072 36.3171 169.078 38.3331 174.124 27.0021C173.314 26.6141 174.033 26.8621 173.148 26.7221Z" fill="#4CB493"/>
<path d="M150.883 45.7236H166.242C166.462 45.7236 166.641 45.9026 166.641 46.1226V60.6446H181.164C181.384 60.6446 181.562 60.8236 181.562 61.0436V76.4036C181.562 76.6236 181.383 76.8026 181.163 76.8026H166.641V91.3246C166.641 91.5446 166.462 91.7236 166.242 91.7236H150.883C150.662 91.7236 150.483 91.5446 150.483 91.3246V76.8026H135.962C135.742 76.8026 135.562 76.6236 135.562 76.4036V61.0436L135.57 60.9626C135.607 60.7816 135.769 60.6446 135.962 60.6446H150.483V46.1226C150.483 45.9306 150.62 45.7686 150.802 45.7316L150.883 45.7236Z" fill="#4CB593" stroke="white" stroke-width="2"/>
</svg>
