<svg width="52" height="52" viewBox="0 0 52 52" fill="none" xmlns="http://www.w3.org/2000/svg">
<rect width="52" height="52" rx="26" fill="#056271"/>
<path fill-rule="evenodd" clip-rule="evenodd" d="M36.025 36.9875C29.1938 29.5375 24.8438 24.2188 22.3625 20.2563C20.8125 17.7875 19.9688 15.825 19.7875 14.2125C18.5938 16.3625 17.9375 18.7563 17.8688 21.25C17.8438 22.175 18.5813 24.3125 22.25 29.2375C24.8063 32.6687 27.9938 36.4062 30.3188 39.1375C31.3063 40.3 32.1375 41.2687 32.7313 42L36.025 36.9875ZM25.3063 34.8563C24.025 36.4 22.7875 37.8563 21.6938 39.1375C20.7063 40.3 19.875 41.2687 19.2813 42L15.9813 36.9875C18.2563 34.4937 19.275 33.25 21.0688 31.0688C21.2688 30.825 21.4813 30.5687 21.7 30.3C22.7875 31.75 24.0125 33.2812 25.3063 34.8563ZM26 15.7812C24.5125 15.7812 23.0438 16.2313 21.8063 17.05C20.8375 14.9938 20.5938 13.45 21.0563 12.2812C22.2938 10.8312 24.0875 10 26 10C27.9125 10 29.7063 10.8312 30.9438 12.2812C31.2188 13.0187 31.1188 14.375 29.8875 16.8562C28.7125 16.15 27.375 15.7812 26 15.7812ZM26.475 24.2125C28.6813 21.2062 30.2625 18.6687 31.1688 16.6687C31.6375 15.6375 31.9375 14.7375 32.0688 13.95C33.3563 16.1625 34.0688 18.6562 34.1375 21.2563C34.1625 22.1438 33.4813 24.1625 30.1375 28.725C28.75 27.0813 27.5313 25.5812 26.475 24.2125Z" fill="white"/>
</svg>
