<svg width="119" height="119" viewBox="0 0 119 119" fill="none" xmlns="http://www.w3.org/2000/svg">
<g opacity="0.1" clip-path="url(#clip0_334_1721)">
<path d="M27.3741 27.3616L22.459 32.2767C18.3533 36.3824 11.697 36.3824 7.59131 32.2767L2.5116 27.197L7.42668 22.2819C11.5324 18.1762 18.1887 18.1762 22.2944 22.2819L27.3741 27.3616Z" fill="white"/>
<path d="M11.1584 28.7096L6.07869 23.6299L2.5116 27.197L7.59131 32.2767C11.697 36.3824 18.3536 36.3824 22.459 32.2767L26.0259 28.7098C21.9204 32.815 15.2641 32.815 11.1584 28.7096Z" fill="white"/>
<path d="M19.5354 99.7642V106.715C19.5354 112.521 14.8285 117.228 9.02227 117.228H1.83826V110.277C1.83826 104.471 6.54517 99.7642 12.3514 99.7642H19.5354Z" fill="white"/>
<path d="M14.3197 111.931H7.13568V104.98C7.13458 103.498 7.44776 102.034 8.05453 100.683C4.39127 102.326 1.83826 106.002 1.83826 110.277V117.228H9.02227C13.2972 117.228 16.9733 114.675 18.6165 111.012C17.2653 111.619 15.8008 111.932 14.3197 111.931Z" fill="white"/>
<path d="M117.37 1.98047V8.93139C117.37 14.7376 112.663 19.4445 106.857 19.4445H99.6726V12.4936C99.6726 6.68738 104.38 1.98047 110.186 1.98047H117.37Z" fill="white"/>
<path d="M112.088 14.2124H104.904V7.26146C104.904 5.71252 105.242 4.24344 105.843 2.91943C102.205 4.5727 99.6726 8.23619 99.6726 12.4935V19.4444H106.857C111.114 19.4444 114.777 16.9123 116.431 13.2735C115.067 13.8934 113.586 14.2135 112.088 14.2124Z" fill="white"/>
<path d="M27.2255 2.46094L32.1406 7.37602C36.2463 11.4817 36.2463 18.1381 32.1406 22.2437L27.0609 27.3235L22.1458 22.4086C18.0401 18.3029 18.0401 11.6466 22.1458 7.54088L27.2255 2.46094Z" fill="white"/>
<path d="M26.1588 18.3963C22.0531 14.2906 22.0531 7.634 26.1588 3.52832L22.1458 7.54156C18.0401 11.6472 18.0401 18.3036 22.1458 22.4093L27.0609 27.3244L32.1406 22.2447L31.0739 23.3116L26.1588 18.3963Z" fill="white"/>
<path d="M9.22222 12.2502H12.2246V9.24798C12.2246 5.11901 8.87737 1.77197 4.74863 1.77197H1.74622V4.77439C1.74622 8.90312 5.09349 12.2502 9.22222 12.2502Z" fill="white"/>
<path d="M10.4792 7.73699C8.149 7.73699 6.25986 5.84808 6.25986 3.51768V1.92496C5.76258 1.82305 5.25625 1.7718 4.74863 1.77197H1.74622V4.77439C1.74622 8.90336 5.09349 12.2504 9.22222 12.2504H12.2246V9.24821C12.2246 8.73035 12.1718 8.22505 12.0717 7.73699H10.4792Z" fill="white"/>
<path d="M40.4116 26.9203V29.9228H43.414C47.543 29.9228 50.89 26.5755 50.89 22.4468V19.4443H47.8876C43.7587 19.4443 40.4116 22.7916 40.4116 26.9203ZM89.8013 29.9228H92.8037V26.9203C92.8037 22.7914 89.4565 19.4443 85.3277 19.4443H82.3253V22.4468C82.3253 26.5757 85.6724 29.9228 89.8013 29.9228Z" fill="white"/>
<path d="M91.0583 25.4091C88.7281 25.4091 86.839 23.5202 86.839 21.1898V19.5973C86.3417 19.4954 85.8353 19.4442 85.3277 19.4443H82.3253V22.4468C82.3253 26.5757 85.6726 29.9228 89.8013 29.9228H92.8037V26.9203C92.8037 26.4025 92.7509 25.8972 92.6508 25.4091H91.0583Z" fill="white"/>
<path d="M26.8948 40.3862H29.8973V43.3886C29.8973 47.5176 26.55 50.8647 22.4212 50.8647H19.4188V47.8622C19.4188 43.7335 22.7659 40.3862 26.8948 40.3862Z" fill="white"/>
<path d="M27.5559 45.7299H24.5535V42.7275C24.5535 42.015 24.6552 41.3267 24.8415 40.6742C21.7115 41.5668 19.4188 44.4458 19.4188 47.8624V50.8648H22.4212C25.8377 50.8648 28.7167 48.5722 29.6094 45.4421C28.9416 45.633 28.2505 45.7298 27.5559 45.7299ZM48.6674 24.6185H45.665V21.6163C45.665 20.9038 45.7667 20.2154 45.953 19.563C42.823 20.4555 40.5303 23.3345 40.5303 26.7512V29.7536H43.5327C46.9491 29.7536 49.8282 27.4609 50.7209 24.3309C50.0531 24.5215 49.3619 24.6183 48.6674 24.6185Z" fill="white"/>
<path d="M29.8973 89.776V92.7785H26.8948C22.7659 92.7785 19.4188 89.4312 19.4188 85.3025V82.2998H22.4212C26.55 82.2998 29.8973 85.6471 29.8973 89.776Z" fill="white"/>
<path d="M28.1518 88.2646C25.8216 88.2646 23.9325 86.3757 23.9325 84.0453V82.4528C23.4352 82.3509 22.9289 82.2996 22.4212 82.2998H19.4188V85.3022C19.4188 89.4312 22.7661 92.7782 26.8948 92.7782H29.8973V89.7758C29.8973 89.2579 29.8444 88.7527 29.7443 88.2646H28.1518Z" fill="white"/>
<path d="M27.3741 27.3619L22.459 32.277C18.3534 36.3827 11.697 36.3827 7.59132 32.277L2.51161 27.1973L7.42669 22.2822C11.5324 18.1765 18.1887 18.1765 22.2944 22.2822M27.3741 27.3619L22.2944 22.2822M27.3741 27.3619H14.1708M27.3741 27.3619L32.2892 22.4468C36.3949 18.3412 36.3949 11.6848 32.2892 7.57912L27.2095 2.49941L22.2944 7.41426C18.1887 11.5199 18.1887 18.1765 22.2944 22.2822M27.3741 27.3619V14.1586M117.253 7.21959V1.86395H110.302C104.496 1.86395 99.7894 6.57086 99.7894 12.3771V19.5611M99.7894 19.5611H106.74C111.98 19.5611 116.325 15.7278 117.122 10.7126M99.7894 19.5611L109.125 10.2248M84.0717 1.77197H85.8181C88.7116 1.77197 91.0573 4.11774 91.0573 7.01119C91.0573 9.90463 88.7116 12.2504 85.8181 12.2504H47.3972C44.5038 12.2504 42.158 9.90463 42.158 7.01119C42.158 4.11774 44.5038 1.77197 47.3972 1.77197H49.1436M66.6077 19.4444H77.0861M56.1293 19.4444H63.1149M19.5351 99.7641V106.715C19.5351 112.521 14.8282 117.228 9.02197 117.228H1.83796V110.277C1.83796 104.471 6.54487 99.7641 12.3511 99.7641H19.5351ZM19.5351 99.7641L10.199 109.1M12.2246 66.5973V47.372C12.2246 44.4786 9.87887 42.1328 6.98543 42.1328C4.09199 42.1328 1.74622 44.4786 1.74622 47.372V49.1184M12.2246 73.583V70.0902M1.74622 84.0465V85.7929C1.74622 88.6863 4.09199 91.0321 6.98543 91.0321C9.87887 91.0321 12.2246 88.6863 12.2246 85.7929V77.0758M19.4187 56.104V77.0609M9.22222 12.2504H12.2246V9.24821C12.2246 5.11925 8.87737 1.77221 4.74863 1.77221H1.74622V4.77462C1.74622 8.90336 5.09349 12.2504 9.22222 12.2504ZM40.4116 26.9204V29.9228H43.414C47.543 29.9228 50.89 26.5756 50.89 22.4468V19.4444H47.8876C43.7587 19.4444 40.4116 22.7917 40.4116 26.9204ZM89.8013 29.9228H92.8037V26.9204C92.8037 22.7915 89.4565 19.4444 85.3277 19.4444H82.3253V22.4468C82.3253 26.5758 85.6724 29.9228 89.8013 29.9228ZM26.8947 40.3864H29.8971V43.3888C29.8971 47.5178 26.5498 50.8648 22.4211 50.8648H19.4187V47.8624C19.4187 43.7337 22.7657 40.3864 26.8947 40.3864ZM29.8971 89.7763V92.7787H26.8947C22.7657 92.7787 19.4187 89.4315 19.4187 85.3027V82.3001H22.4211C26.5498 82.3001 29.8971 85.6474 29.8971 89.7763Z" stroke="white" stroke-width="3.79685" stroke-miterlimit="10"/>
</g>
<defs>
<clipPath id="clip0_334_1721">
<rect width="119" height="119" fill="white"/>
</clipPath>
</defs>
</svg>
